<svg width="45" height="44" viewBox="0 0 45 44" fill="none" xmlns="http://www.w3.org/2000/svg">
<path d="M4.76972 42.3495C3.51343 42.3495 2.49316 41.3283 2.49316 40.0729V5.97113C2.49316 4.71485 3.51436 3.69458 4.76972 3.69458H40.7299C41.9862 3.69458 43.0065 4.71578 43.0065 5.97113V40.0729C43.0065 41.3292 41.9853 42.3495 40.7299 42.3495H4.76972Z" fill="#FDFCEE"/>
<path d="M40.73 4.34508C41.6267 4.34508 42.3561 5.0745 42.3561 5.97119V40.073C42.3561 40.9697 41.6267 41.6991 40.73 41.6991H4.76977C3.87309 41.6991 3.14366 40.9697 3.14366 40.073V5.97119C3.14366 5.0745 3.87309 4.34508 4.76977 4.34508H40.73ZM40.73 3.04419H4.76977C3.15295 3.04419 1.84277 4.35437 1.84277 5.97119V40.073C1.84277 41.6898 3.15295 43 4.76977 43H40.73C42.3468 43 43.657 41.6898 43.657 40.073V5.97119C43.657 4.35437 42.3468 3.04419 40.73 3.04419Z" fill="#472B29"/>
<path d="M3.15918 13.2656H42.341V5.94809C42.341 5.02818 41.5957 4.28296 40.6758 4.28296H4.66914C3.83564 4.28296 3.15918 4.95942 3.15918 5.79292V13.2656Z" fill="#EF7D99"/>
<path d="M35.5264 18.1438H39.7078V22.3252H35.5264V18.1438Z" fill="#FFF6AE"/>
<path d="M39.4754 18.376V22.0928H35.7585V18.376H39.4754ZM39.94 17.9114H35.2939V22.5574H39.94V17.9114Z" fill="#472B29"/>
<path d="M28.0928 18.1438H32.2742V22.3252H28.0928V18.1438Z" fill="#FFF6AE"/>
<path d="M32.0418 18.376V22.0928H28.325V18.376H32.0418ZM32.5064 17.9114H27.8604V22.5574H32.5064V17.9114Z" fill="#472B29"/>
<path d="M20.6592 18.1438H24.8406V22.3252H20.6592V18.1438Z" fill="#FFF6AE"/>
<path d="M24.6082 18.376V22.0928H20.8914V18.376H24.6082ZM25.0728 17.9114H20.4268V22.5574H25.0728V17.9114Z" fill="#472B29"/>
<path d="M13.2256 18.1438H17.407V22.3252H13.2256V18.1438Z" fill="#FFF6AE"/>
<path d="M17.1746 18.376V22.0928H13.4578V18.376H17.1746ZM17.6392 17.9114H12.9932V22.5574H17.6392V17.9114Z" fill="#472B29"/>
<path d="M5.79199 18.1438H9.97341V22.3252H5.79199V18.1438Z" fill="#FFF6AE"/>
<path d="M9.74099 18.376V22.0928H6.02417V18.376H9.74099ZM10.2056 17.9114H5.55957V22.5574H10.2056V17.9114Z" fill="#472B29"/>
<path d="M35.5264 25.5774H39.7078V29.7588H35.5264V25.5774Z" fill="#FFF6AE"/>
<path d="M39.4754 25.8098V29.5266H35.7585V25.8098H39.4754ZM39.94 25.3452H35.2939V29.9912H39.94V25.3452Z" fill="#472B29"/>
<path d="M28.0928 25.5774H32.2742V29.7588H28.0928V25.5774Z" fill="#FFF6AE"/>
<path d="M32.0418 25.8098V29.5266H28.325V25.8098H32.0418ZM32.5064 25.3452H27.8604V29.9912H32.5064V25.3452Z" fill="#472B29"/>
<path d="M20.6592 25.5774H24.8406V29.7588H20.6592V25.5774Z" fill="#FFF6AE"/>
<path d="M24.6082 25.8098V29.5266H20.8914V25.8098H24.6082ZM25.0728 25.3452H20.4268V29.9912H25.0728V25.3452Z" fill="#472B29"/>
<path d="M13.2256 25.5774H17.407V29.7588H13.2256V25.5774Z" fill="#FFF6AE"/>
<path d="M17.1746 25.8098V29.5266H13.4578V25.8098H17.1746ZM17.6392 25.3452H12.9932V29.9912H17.6392V25.3452Z" fill="#472B29"/>
<path d="M5.79199 25.5774H9.97341V29.7588H5.79199V25.5774Z" fill="#FFF6AE"/>
<path d="M9.74099 25.8098V29.5266H6.02417V25.8098H9.74099ZM10.2056 25.3452H5.55957V29.9912H10.2056V25.3452Z" fill="#472B29"/>
<path d="M20.6592 33.011H24.8406V37.1924H20.6592V33.011Z" fill="#FFF6AE"/>
<path d="M24.6082 33.2434V36.9602H20.8914V33.2434H24.6082ZM25.0728 32.7788H20.4268V37.4248H25.0728V32.7788Z" fill="#472B29"/>
<path d="M13.2256 33.011H17.407V37.1924H13.2256V33.011Z" fill="#FFF6AE"/>
<path d="M17.1746 33.2434V36.9602H13.4578V33.2434H17.1746ZM17.6392 32.7788H12.9932V37.4248H17.6392V32.7788Z" fill="#472B29"/>
<path d="M5.79199 33.011H9.97341V37.1924H5.79199V33.011Z" fill="#FFF6AE"/>
<path d="M9.74099 33.2434V36.9602H6.02417V33.2434H9.74099ZM10.2056 32.7788H5.55957V37.4248H10.2056V32.7788Z" fill="#472B29"/>
<path d="M36.6877 6.94691C36.3281 6.94691 36.0373 6.65607 36.0373 6.29647V1.65044C36.0373 1.29084 36.3281 1 36.6877 1C37.0473 1 37.3382 1.29084 37.3382 1.65044V6.29647C37.3382 6.65607 37.0473 6.94691 36.6877 6.94691ZM32.0417 6.94691C31.6821 6.94691 31.3912 6.65607 31.3912 6.29647V1.65044C31.3912 1.29084 31.6821 1 32.0417 1C32.4013 1 32.6921 1.29084 32.6921 1.65044V6.29647C32.6921 6.65607 32.4013 6.94691 32.0417 6.94691ZM27.3957 6.94691C27.0361 6.94691 26.7452 6.65607 26.7452 6.29647V1.65044C26.7452 1.29084 27.0361 1 27.3957 1C27.7553 1 28.0461 1.29084 28.0461 1.65044V6.29647C28.0461 6.65607 27.7553 6.94691 27.3957 6.94691ZM22.7496 6.94691C22.39 6.94691 22.0992 6.65607 22.0992 6.29647V1.65044C22.0992 1.29084 22.39 1 22.7496 1C23.1092 1 23.4001 1.29084 23.4001 1.65044V6.29647C23.4001 6.65607 23.1092 6.94691 22.7496 6.94691ZM18.1036 6.94691C17.744 6.94691 17.4532 6.65607 17.4532 6.29647V1.65044C17.4532 1.29084 17.744 1 18.1036 1C18.4632 1 18.7541 1.29084 18.7541 1.65044V6.29647C18.7541 6.65607 18.4632 6.94691 18.1036 6.94691ZM13.4576 6.94691C13.098 6.94691 12.8072 6.65607 12.8072 6.29647V1.65044C12.8072 1.29084 13.098 1 13.4576 1C13.8172 1 14.108 1.29084 14.108 1.65044V6.29647C14.108 6.65607 13.8172 6.94691 13.4576 6.94691ZM8.81158 6.94691C8.45197 6.94691 8.16113 6.65607 8.16113 6.29647V1.65044C8.16113 1.29084 8.45197 1 8.81158 1C9.17118 1 9.46202 1.29084 9.46202 1.65044V6.29647C9.46202 6.65607 9.17118 6.94691 8.81158 6.94691Z" fill="#472B29"/>
<path d="M27.3964 13.2654H3.23706C2.9806 13.2654 2.77246 13.0572 2.77246 12.8008C2.77246 12.5443 2.9806 12.3362 3.23706 12.3362H27.3964C27.6528 12.3362 27.861 12.5443 27.861 12.8008C27.861 13.0572 27.6528 13.2654 27.3964 13.2654Z" fill="#472B29"/>
<path d="M34.8299 13.2654H31.113C30.8566 13.2654 30.6484 13.0572 30.6484 12.8008C30.6484 12.5443 30.8566 12.3362 31.113 12.3362H34.8299C35.0863 12.3362 35.2945 12.5443 35.2945 12.8008C35.2945 13.0572 35.0863 13.2654 34.8299 13.2654Z" fill="#472B29"/>
<path d="M42.263 13.2654H37.6169C37.3605 13.2654 37.1523 13.0572 37.1523 12.8008C37.1523 12.5443 37.3605 12.3362 37.6169 12.3362H42.263C42.5194 12.3362 42.7276 12.5443 42.7276 12.8008C42.7276 13.0572 42.5194 13.2654 42.263 13.2654Z" fill="#472B29"/>
<path d="M32.7441 25.1078V30.2287H27.6231V25.1078H32.7441ZM33.9004 23.9514H26.4668V31.3851H33.9004V23.9514Z" fill="#EA4989"/>
</svg>
