<svg width="45" height="44" viewBox="0 0 45 44" fill="none" xmlns="http://www.w3.org/2000/svg">
<path d="M22.3458 37.6536L35.313 31.1147C36.7537 30.45 37.6401 28.5653 37.0865 27.0142C36.6433 25.6839 35.4242 24.9087 34.0939 24.9087C33.6507 24.9087 33.3179 25.0199 32.8747 25.1303L22.2354 29.4524" fill="#FDDBBC"/>
<path d="M22.3468 38.1904C22.1497 38.1904 21.9611 38.0823 21.8668 37.8952C21.7334 37.6299 21.84 37.3071 22.1045 37.1744L35.071 30.6364C36.3315 30.0544 37.0292 28.4496 36.5807 27.1952C36.2249 26.1279 35.2504 25.4463 34.0941 25.4463C33.7959 25.4463 33.5589 25.5084 33.23 25.5935L33.0053 25.651L22.438 29.9494C22.162 30.0629 21.8499 29.9295 21.7388 29.6542C21.6276 29.3789 21.7587 29.0661 22.034 28.9549L32.9593 24.5546C33.3189 24.461 33.6578 24.3721 34.0941 24.3721C35.7204 24.3721 37.0944 25.3428 37.5951 26.8448C38.2261 28.6129 37.2861 30.7959 35.5371 31.6033L22.5875 38.1336C22.5101 38.1712 22.4273 38.1904 22.3468 38.1904Z" fill="#472B29"/>
<path d="M25.6717 38.7615L38.639 32.2227C40.0797 31.5579 40.966 29.6732 40.4124 28.1221C39.9693 26.7918 38.7501 26.0166 37.4198 26.0166C36.9766 26.0166 36.6439 26.1278 36.2007 26.2382L25.5605 30.5603" fill="#FDDBBC"/>
<path d="M25.6723 39.2991C25.4752 39.2991 25.2866 39.1909 25.1923 39.0039C25.0589 38.7386 25.1655 38.4158 25.43 38.2831L38.3972 31.7443C39.6578 31.1623 40.3555 29.5575 39.907 28.3031C39.5512 27.2358 38.5767 26.5542 37.4196 26.5542C37.1214 26.5542 36.8844 26.6163 36.5555 26.7014L36.3309 26.7589L25.7635 31.0581C25.4883 31.17 25.1755 31.0374 25.0643 30.7629C24.9523 30.4884 25.0842 30.1748 25.3595 30.0636L36.2848 25.6625C36.6445 25.5689 36.9834 25.48 37.4196 25.48C39.0467 25.48 40.4207 26.4507 40.9214 27.9527C41.5524 29.7209 40.6124 31.9038 38.8634 32.7112L25.9131 39.2423C25.8356 39.2807 25.7528 39.2991 25.6723 39.2991Z" fill="#472B29"/>
<path d="M2.28711 23.5784L8.27157 21.3617C9.37952 20.9186 10.4882 20.8074 11.5962 20.8074C13.1481 20.8074 14.6992 21.1401 16.0295 21.9153L26.5585 27.4566C27.8888 28.1214 28.332 29.7837 27.6664 31.114L27.4448 31.5572L28.7752 32.4435L39.6361 28.0102C39.9689 27.899 40.3009 27.7886 40.6337 27.7886C41.7416 27.7886 42.7392 28.4534 43.0719 29.4509C43.5151 30.67 42.8503 32.2219 41.6312 32.7755L28.664 39.3144C28.3312 39.5359 27.7776 39.6471 27.3337 39.6471C26.8897 39.6471 26.4473 39.5359 26.0034 39.3144L9.26911 31.5579L2.28711 34.329" fill="#FDDBBC"/>
<path d="M27.3338 40.1855C26.8078 40.1855 26.2803 40.0544 25.7635 39.796L9.2524 32.1423L2.48433 34.8275C2.2129 34.9394 1.897 34.8029 1.78812 34.5261C1.67848 34.2509 1.81342 33.9388 2.08945 33.8299L9.07145 31.0597C9.20716 31.0045 9.36052 31.0083 9.4947 31.072L26.2297 38.8299C26.61 39.0193 26.9773 39.1121 27.3338 39.1121C27.721 39.1121 28.155 39.0101 28.3659 38.8705L41.3891 32.2987C42.3628 31.8563 42.9141 30.5912 42.5668 29.6358C42.3076 28.8591 41.5148 28.327 40.6338 28.327C40.3885 28.327 40.1063 28.4213 39.8065 28.521L28.9777 32.9428C28.8137 33.0095 28.6258 32.9911 28.4771 32.8922L27.1475 32.0059C26.9229 31.8563 26.8439 31.5619 26.9658 31.3188L27.1874 30.8757C27.7394 29.7715 27.3499 28.4535 26.3187 27.9383L15.779 22.3901C14.5982 21.7023 13.1582 21.3442 11.5956 21.3442C10.3258 21.3442 9.36205 21.5029 8.47032 21.8603L2.47283 24.0815C2.1968 24.1873 1.88626 24.0424 1.78352 23.7649C1.68078 23.4873 1.82262 23.1775 2.10019 23.0755L8.08541 20.8581C9.09675 20.4533 10.1832 20.27 11.5964 20.27C13.3491 20.27 14.9754 20.6787 16.3003 21.4516L26.8086 26.9821C28.3582 27.7573 28.9639 29.7202 28.1466 31.3541L28.1366 31.3741L28.8351 31.8395L39.4331 27.5127C39.8333 27.3778 40.2144 27.2513 40.6331 27.2513C41.991 27.2513 43.1756 28.0663 43.5804 29.2801C44.1187 30.7622 43.3305 32.5924 41.853 33.2641L28.9049 39.7937C28.4932 40.0751 27.8146 40.1855 27.3338 40.1855Z" fill="#472B29"/>
<path d="M18.1849 29.4894C17.5791 29.1842 16.6514 28.7227 16.6514 28.7227L18.1849 29.4894Z" fill="#FDDBBC"/>
<path d="M18.1849 29.8728C18.1267 29.8728 18.0676 29.859 18.0117 29.8314C17.4075 29.527 16.4805 29.0662 16.4805 29.0654L16.8217 28.3792C16.8217 28.3792 17.751 28.8407 18.3575 29.1467C18.5461 29.2417 18.622 29.4725 18.5269 29.6619C18.4594 29.7953 18.3253 29.8728 18.1849 29.8728Z" fill="#472B29"/>
<path d="M27.4178 31.3425C26.875 32.301 25.5132 33.0424 23.5841 32.1093C22.7552 31.7083 21.0477 30.8541 19.6445 30.1479" fill="#FDDBBC"/>
<path d="M25.2778 32.9221C24.7188 32.9221 24.0924 32.781 23.4169 32.4552C22.5872 32.0541 20.8774 31.1977 19.4719 30.4907C19.2826 30.3957 19.2066 30.1656 19.3017 29.9763C19.3953 29.7853 19.6268 29.7079 19.8162 29.806C21.2171 30.5099 22.9223 31.3641 23.7504 31.7643C25.4817 32.6024 26.6288 31.9591 27.0834 31.154C27.1885 30.9684 27.4239 30.904 27.6064 31.0091C27.7904 31.1141 27.8556 31.3472 27.7513 31.532C27.302 32.3256 26.4302 32.9221 25.2778 32.9221Z" fill="#472B29"/>
<path d="M33.0427 4.22119C31.6936 4.22119 30.3998 4.7571 29.4459 5.71102C28.492 6.66495 27.9561 7.95874 27.9561 9.30779C27.9561 10.6568 28.492 11.9506 29.4459 12.9046C30.3998 13.8585 31.6936 14.3944 33.0427 14.3944C34.3917 14.3944 35.6855 13.8585 36.6394 12.9046C37.5933 11.9506 38.1293 10.6568 38.1293 9.30779C38.1293 7.95874 37.5933 6.66495 36.6394 5.71102C35.6855 4.7571 34.3917 4.22119 33.0427 4.22119Z" fill="#FBCD59"/>
<path d="M33.0426 14.8014C30.0132 14.8014 27.5488 12.3379 27.5488 9.30844C27.5488 6.27902 30.0132 3.8147 33.0426 3.8147C36.072 3.8147 38.5355 6.27902 38.5355 9.30844C38.5355 12.3379 36.072 14.8014 33.0426 14.8014ZM33.0426 4.62822C30.4625 4.62822 28.3631 6.7268 28.3631 9.30767C28.3631 11.887 30.4617 13.9864 33.0426 13.9864C35.6219 13.9864 37.7213 11.8878 37.7213 9.30767C37.7205 6.72757 35.6219 4.62822 33.0426 4.62822Z" fill="#472B29"/>
<path d="M33.0429 5.98145C32.1608 5.98145 31.3148 6.33188 30.691 6.95565C30.0672 7.57943 29.7168 8.42545 29.7168 9.3076C29.7168 10.1897 30.0672 11.0358 30.691 11.6595C31.3148 12.2833 32.1608 12.6337 33.0429 12.6337C33.9251 12.6337 34.7711 12.2833 35.3949 11.6595C36.0187 11.0358 36.3691 10.1897 36.3691 9.3076C36.3691 8.42545 36.0187 7.57943 35.3949 6.95565C34.7711 6.33188 33.9251 5.98145 33.0429 5.98145Z" fill="#F1BC19"/>
<path d="M33.043 12.8362C31.0962 12.8362 29.5137 11.2529 29.5137 9.30766C29.5137 7.36089 31.097 5.77832 33.043 5.77832C34.9898 5.77832 36.5723 7.36165 36.5723 9.30766C36.5723 11.2529 34.989 12.8362 33.043 12.8362ZM33.043 6.18546C31.3217 6.18546 29.9208 7.58631 29.9208 9.30766C29.9208 11.0282 31.3217 12.4291 33.043 12.4291C34.7644 12.4291 36.1652 11.0282 36.1652 9.30766C36.1652 7.58631 34.7644 6.18546 33.043 6.18546Z" fill="#472B29"/>
<path d="M24.861 10.0676C23.512 10.0676 22.2182 10.6035 21.2642 11.5575C20.3103 12.5114 19.7744 13.8052 19.7744 15.1542C19.7744 16.5033 20.3103 17.7971 21.2642 18.751C22.2182 19.7049 23.512 20.2408 24.861 20.2408C26.2101 20.2408 27.5039 19.7049 28.4578 18.751C29.4117 17.7971 29.9476 16.5033 29.9476 15.1542C29.9476 13.8052 29.4117 12.5114 28.4578 11.5575C27.5039 10.6035 26.2101 10.0676 24.861 10.0676Z" fill="#FBCD59"/>
<path d="M24.8609 20.9914C21.8315 20.9914 19.3672 18.4496 19.3672 15.3259C19.3672 12.2021 21.8315 9.66113 24.8609 9.66113C27.8903 9.66113 30.3547 12.2021 30.3547 15.3259C30.3547 18.4496 27.8903 20.9914 24.8609 20.9914ZM24.8609 10.4762C22.2808 10.4762 20.1815 12.5748 20.1815 15.1549C20.1815 17.735 22.2801 19.8343 24.8609 19.8343C27.4418 19.8343 29.5404 17.7357 29.5404 15.1549C29.5404 12.5748 27.441 10.4762 24.8609 10.4762Z" fill="#472B29"/>
<path d="M24.8603 11.8289C23.9782 11.8289 23.1322 12.1793 22.5084 12.8031C21.8846 13.4268 21.5342 14.2729 21.5342 15.155C21.5342 16.0372 21.8846 16.8832 22.5084 17.5069C23.1322 18.1307 23.9782 18.4812 24.8603 18.4812C25.7425 18.4812 26.5885 18.1307 27.2123 17.5069C27.836 16.8832 28.1865 16.0372 28.1865 15.155C28.1865 14.2729 27.836 13.4268 27.2123 12.8031C26.5885 12.1793 25.7425 11.8289 24.8603 11.8289Z" fill="#F1BC19"/>
<path d="M24.8604 18.6834C22.9136 18.6834 21.3311 17.1001 21.3311 15.1541C21.3311 13.2073 22.9144 11.6248 24.8604 11.6248C26.8064 11.6248 28.3897 13.2081 28.3897 15.1541C28.3897 17.1009 26.8072 18.6834 24.8604 18.6834ZM24.8604 12.0319C23.139 12.0319 21.7382 13.4327 21.7382 15.1541C21.7382 16.8754 23.139 18.2763 24.8604 18.2763C26.5817 18.2763 27.9826 16.8754 27.9826 15.1541C27.9826 13.4327 26.5817 12.0319 24.8604 12.0319Z" fill="#472B29"/>
<path d="M24.4281 16.0436C24.4327 16.0436 24.4419 16.0482 24.4557 16.0574L24.4481 16.0544C24.5148 16.1004 24.5746 16.1364 24.6275 16.1625C24.6804 16.1886 24.7364 16.207 24.7962 16.2185V15.1481L24.7341 15.1136C24.6581 15.0722 24.5861 15.0285 24.5171 14.9825C24.4481 14.9365 24.386 14.8866 24.3315 14.8306C24.2763 14.7762 24.2295 14.7172 24.192 14.6558C24.1544 14.5945 24.1283 14.5262 24.1145 14.4526C24.1053 14.4158 24.1 14.3821 24.0992 14.3491C24.0984 14.3162 24.0977 14.2824 24.0977 14.2456C24.0977 14.1383 24.1153 14.0432 24.1506 13.9635C24.1866 13.8829 24.2357 13.8147 24.297 13.7587C24.3591 13.7028 24.432 13.6575 24.5171 13.6246C24.6022 13.5916 24.695 13.5693 24.7954 13.5578V13.462C24.7954 13.416 24.8061 13.3769 24.8261 13.3447C24.8468 13.3117 24.8851 13.2964 24.9395 13.2964H24.9533C25.0722 13.2964 25.1381 13.3554 25.1496 13.4712L25.1466 13.564C25.211 13.5755 25.2769 13.5931 25.3444 13.6177C25.4119 13.6422 25.4885 13.6721 25.5736 13.7089L25.5637 13.7028C25.6028 13.7166 25.6327 13.7334 25.6549 13.7541C25.6772 13.7748 25.6902 13.8078 25.6948 13.8538V13.8745C25.6948 13.8906 25.691 13.9113 25.6825 13.9366C25.6741 13.9619 25.6618 13.9865 25.6465 14.0095C25.6304 14.0325 25.612 14.0524 25.5913 14.07C25.5706 14.0869 25.5476 14.0961 25.5223 14.0961C25.5016 14.0961 25.4824 14.0946 25.4655 14.0907C25.4487 14.0877 25.428 14.0777 25.405 14.0616V14.0647L25.3674 14.044C25.3007 14.0095 25.2271 13.9819 25.1473 13.9619V14.902L25.1611 14.9096C25.3467 15.0039 25.4901 15.1082 25.5913 15.2232C25.6925 15.3382 25.7592 15.4571 25.7906 15.5821C25.8044 15.635 25.8144 15.6833 25.8198 15.7262C25.8251 15.7699 25.829 15.8144 25.829 15.8604C25.829 15.9662 25.8121 16.0613 25.7768 16.1464C25.7423 16.2315 25.6956 16.3051 25.6358 16.3687C25.5759 16.4316 25.5046 16.4838 25.4203 16.5236C25.3367 16.5643 25.2455 16.5911 25.1466 16.6041V16.851C25.1466 16.897 25.1374 16.9361 25.119 16.9683C25.1013 16.9998 25.063 17.0166 25.0055 17.0166H24.9848C24.9273 17.0166 24.8813 17.0013 24.8468 16.9699C24.8123 16.9392 24.7946 16.8932 24.7946 16.8342V16.6034C24.6704 16.5896 24.5638 16.562 24.4741 16.5213C24.3844 16.4799 24.2924 16.4285 24.1989 16.3664C24.1736 16.3457 24.1567 16.3266 24.1467 16.3074C24.1375 16.2898 24.1268 16.2645 24.1161 16.2315V16.2108C24.1161 16.1901 24.1222 16.1671 24.1345 16.141C24.1467 16.1142 24.1621 16.0889 24.1812 16.0651C24.1996 16.0406 24.2188 16.0206 24.2403 16.003C24.261 15.9861 24.2801 15.9769 24.2993 15.9769C24.3246 15.9769 24.3469 15.9846 24.3668 15.9999C24.3867 16.0145 24.4051 16.0298 24.4228 16.0467H24.4281C24.4327 16.049 24.4366 16.0498 24.4381 16.0498L24.4281 16.0436ZM24.6045 14.5799C24.6582 14.6305 24.7218 14.675 24.7962 14.7141V13.9596C24.7088 13.978 24.6367 14.0133 24.5776 14.0662C24.5186 14.1191 24.4895 14.1904 24.4895 14.2794C24.4895 14.2932 24.4902 14.3077 24.491 14.3238C24.4918 14.3399 24.4948 14.3599 24.5002 14.3829C24.5163 14.4634 24.5508 14.5293 24.6045 14.5799ZM25.313 15.487C25.2669 15.431 25.2117 15.3819 25.1473 15.3405V16.1985C25.2271 16.1656 25.2945 16.1172 25.3482 16.0505C25.4019 15.9838 25.4287 15.9064 25.4287 15.8167C25.4287 15.7914 25.4264 15.7684 25.4218 15.7477C25.4172 15.727 25.4126 15.7055 25.408 15.6825C25.3912 15.6081 25.3582 15.543 25.313 15.487Z" fill="#472B29"/>
<path d="M32.5082 10.1962C32.5128 10.1962 32.522 10.2008 32.5358 10.21L32.5281 10.207C32.5948 10.253 32.6546 10.289 32.7076 10.3151C32.7605 10.3411 32.8164 10.3595 32.8762 10.371V9.30067L32.8141 9.26617C32.7382 9.22476 32.6662 9.18106 32.5971 9.13505C32.5281 9.08905 32.466 9.03921 32.4116 8.98324C32.3564 8.9288 32.3096 8.86976 32.272 8.80842C32.2345 8.74631 32.2084 8.67884 32.1946 8.60523C32.1854 8.56843 32.18 8.53469 32.1793 8.50172C32.1785 8.46875 32.1777 8.43501 32.1777 8.39821C32.1777 8.29086 32.1954 8.19579 32.2306 8.11605C32.2667 8.03554 32.3157 7.9673 32.3771 7.91132C32.4392 7.85535 32.512 7.81011 32.5971 7.77714C32.6823 7.74341 32.775 7.72194 32.8755 7.71044V7.61459C32.8755 7.56859 32.8862 7.52948 32.9061 7.49728C32.9268 7.46431 32.9652 7.44897 33.0196 7.44897H33.0334C33.1523 7.44897 33.2182 7.50801 33.2297 7.62379L33.2266 7.71657C33.291 7.72807 33.357 7.74571 33.4245 7.77024C33.4919 7.79478 33.5686 7.82468 33.6537 7.86148L33.6438 7.85535C33.6829 7.86915 33.7128 7.88602 33.735 7.90672C33.7572 7.92742 33.7703 7.96039 33.7749 8.0064V8.0271C33.7749 8.0432 33.771 8.06391 33.7626 8.08921C33.7542 8.11451 33.7419 8.13905 33.7266 8.16205C33.7105 8.18505 33.6921 8.20499 33.6714 8.22262C33.6507 8.23949 33.6277 8.24869 33.6024 8.24869C33.5816 8.24869 33.5625 8.24716 33.5456 8.24333C33.5287 8.24026 33.508 8.23029 33.485 8.21419V8.21726L33.4475 8.19655C33.3808 8.16205 33.3071 8.13445 33.2274 8.11451V9.05454L33.2412 9.06221C33.4268 9.15652 33.5701 9.2608 33.6714 9.37581C33.7726 9.49082 33.8393 9.60967 33.8707 9.73465C33.8845 9.78755 33.8945 9.83586 33.8998 9.8788C33.9052 9.9225 33.909 9.96697 33.909 10.013C33.909 10.1188 33.8922 10.2139 33.8569 10.299C33.8224 10.3841 33.7756 10.4577 33.7158 10.5213C33.656 10.5842 33.5847 10.6363 33.5004 10.6762C33.4168 10.7169 33.3256 10.7437 33.2266 10.7567V11.0044C33.2266 11.0504 33.2174 11.0895 33.199 11.1217C33.1814 11.1531 33.1431 11.17 33.0856 11.17H33.0649C33.0074 11.17 32.9613 11.1547 32.9268 11.1232C32.8923 11.0918 32.8747 11.0466 32.8747 10.9875V10.7567C32.7505 10.7429 32.6439 10.7153 32.5542 10.6747C32.4645 10.6333 32.3725 10.5819 32.2789 10.5198C32.2536 10.4991 32.2368 10.4799 32.2268 10.4608C32.2176 10.4431 32.2069 10.4178 32.1961 10.3848V10.3611C32.1961 10.3404 32.203 10.3174 32.2145 10.2913C32.2268 10.2645 32.2421 10.2392 32.2613 10.2154C32.2797 10.1909 32.2989 10.1709 32.3203 10.1533C32.3411 10.1364 32.3602 10.1272 32.3794 10.1272C32.4047 10.1272 32.4269 10.1349 32.4469 10.1502C32.4668 10.1648 32.4852 10.1801 32.5028 10.197H32.5082C32.5128 10.1993 32.5166 10.2001 32.5182 10.2001L32.5082 10.1962ZM32.6846 8.73251C32.7382 8.78312 32.8019 8.82759 32.8762 8.86669V8.11221C32.7888 8.13061 32.7168 8.16588 32.6577 8.21879C32.5987 8.27169 32.5695 8.343 32.5695 8.43194C32.5695 8.44575 32.5703 8.46032 32.5711 8.47642C32.5718 8.49252 32.5749 8.51245 32.5803 8.53546C32.5964 8.61673 32.6309 8.68191 32.6846 8.73251ZM33.393 9.64034C33.347 9.58437 33.2918 9.53529 33.2274 9.49389V10.3519C33.3071 10.3189 33.3746 10.2706 33.4283 10.2039C33.482 10.1372 33.5088 10.0597 33.5088 9.97004C33.5088 9.94474 33.5065 9.92173 33.5019 9.90103C33.4973 9.88033 33.4927 9.85886 33.4881 9.83586C33.4712 9.76148 33.4383 9.69631 33.393 9.64034Z" fill="#472B29"/>
</svg>
