<svg width="45" height="44" viewBox="0 0 45 44" fill="none" xmlns="http://www.w3.org/2000/svg">
<path d="M7.4306 42.3467C5.43047 42.3467 3.80273 40.6928 3.80273 38.6581V20.2752C3.80273 18.2405 5.43047 16.5867 7.4306 16.5867H38.0682C40.0683 16.5867 41.6961 18.2405 41.6961 20.2752V38.6581C41.6961 40.6919 40.0683 42.3457 38.0682 42.3457H7.4306V42.3467Z" fill="#C0E5E4"/>
<path d="M38.0682 17.24C39.7081 17.24 41.0427 18.6018 41.0427 20.2752V38.6581C41.0418 40.3316 39.7081 41.6933 38.0682 41.6933H7.43062C5.79075 41.6933 4.45608 40.3316 4.45608 38.6581V20.2752C4.45608 18.6018 5.79075 17.24 7.43062 17.24H38.0682ZM38.0682 15.9333H7.43062C5.07582 15.9333 3.14941 17.8868 3.14941 20.2752V38.6572C3.14941 41.0465 5.07582 43 7.43062 43H38.0691C40.423 43 42.3494 41.0465 42.3503 38.6591V20.2752C42.3494 17.8868 40.423 15.9333 38.0682 15.9333Z" fill="#472B29"/>
<path d="M22.8078 28.0666L26.2425 30.5082L36.2824 22.6411V20.2144V10.5572C32.7282 7.02175 30.6973 5.00202 27.1432 1.46655H18.6517H14.5422H13.2636H12.6914C10.5224 1.46655 8.74902 3.23149 8.74902 5.38655V22.2444L19.3368 30.496L22.8078 28.0666Z" fill="#FEFDEF"/>
<path d="M36.2832 22.9332V20.2154V10.5572C32.6684 7.02175 30.6039 5.00202 26.9891 1.46655H18.3529H14.1735H12.8733H12.2909C10.0864 1.46655 8.2832 3.23055 8.2832 5.38655V21.9999" fill="#FEFDEF"/>
<path d="M36.2831 23.4C36.0255 23.4 35.8164 23.1909 35.8164 22.9333V10.7524L26.7995 1.93333H12.2908C10.3383 1.93333 8.74974 3.48267 8.74974 5.38667V22C8.74974 22.2576 8.54067 22.4667 8.28307 22.4667C8.02547 22.4667 7.81641 22.2576 7.81641 22V5.38667C7.81641 2.96747 9.82401 1 12.2908 1H26.9899C27.1121 1 27.2288 1.0476 27.3165 1.13347L36.6107 10.2232C36.7003 10.3109 36.7507 10.4313 36.7507 10.5564L36.7497 22.9333C36.7497 23.1909 36.5407 23.4 36.2831 23.4Z" fill="#472B29"/>
<path d="M26.9492 2.01074V7.14221C26.9492 9.15448 28.5667 10.7999 30.5435 10.7999H35.8542" fill="#FEF6AA"/>
<path d="M35.855 11.2667H30.5443C28.3043 11.2667 26.4824 9.41686 26.4824 7.14232V2.01086C26.4824 1.75326 26.6915 1.54419 26.9491 1.54419C27.2067 1.54419 27.4158 1.75326 27.4158 2.01086V7.14232C27.4158 8.90166 28.8186 10.3334 30.5443 10.3334H35.855C36.1126 10.3334 36.3216 10.5425 36.3216 10.8001C36.3216 11.0577 36.1126 11.2667 35.855 11.2667Z" fill="#472B29"/>
<path d="M22.749 14.144H12.4833C12.2257 14.144 12.0166 13.935 12.0166 13.6774C12.0166 13.4198 12.2257 13.2107 12.4833 13.2107H22.749C23.0066 13.2107 23.2157 13.4198 23.2157 13.6774C23.2157 13.935 23.0075 14.144 22.749 14.144Z" fill="#472B29"/>
<path d="M22.749 17.8774H12.4833C12.2257 17.8774 12.0166 17.6684 12.0166 17.4108C12.0166 17.1532 12.2257 16.9441 12.4833 16.9441H22.749C23.0066 16.9441 23.2157 17.1532 23.2157 17.4108C23.2157 17.6684 23.0075 17.8774 22.749 17.8774Z" fill="#472B29"/>
<path d="M22.749 21.6108H12.4833C12.2257 21.6108 12.0166 21.4018 12.0166 21.1442C12.0166 20.8866 12.2257 20.6775 12.4833 20.6775H22.749C23.0066 20.6775 23.2157 20.8866 23.2157 21.1442C23.2157 21.4018 23.0075 21.6108 22.749 21.6108Z" fill="#472B29"/>
<path d="M26.3621 30.9031C26.2715 30.9031 26.1819 30.877 26.1035 30.8247L22.8014 28.6239L19.4106 30.7762C19.2454 30.8835 19.0317 30.8723 18.8749 30.7519L3.79781 19.1039C3.59341 18.9462 3.55607 18.6541 3.71381 18.4497C3.86967 18.2453 4.16367 18.207 4.36807 18.3657L19.1866 29.8121L22.5578 27.6729C22.7137 27.5739 22.9134 27.5758 23.0665 27.6785L26.3415 29.8615L41.1302 18.3657C41.3337 18.2061 41.6277 18.2443 41.7845 18.4478C41.9431 18.6513 41.9058 18.9443 41.7023 19.1021L26.6486 30.8051C26.5646 30.8705 26.4629 30.9031 26.3621 30.9031Z" fill="#472B29"/>
<path d="M5.01673 40.9336C4.87113 40.9336 4.72739 40.8664 4.63686 40.7386C4.48659 40.5286 4.53606 40.2373 4.74513 40.0871L16.8785 31.4201C17.0875 31.2708 17.3787 31.3193 17.529 31.5284C17.6793 31.7384 17.6298 32.0296 17.4207 32.1799L5.28739 40.8468C5.20619 40.9056 5.11099 40.9336 5.01673 40.9336Z" fill="#472B29"/>
<path d="M40.4824 40.9337C40.3881 40.9337 40.2939 40.9057 40.2117 40.8469L28.0784 32.1799C27.8684 32.0297 27.8199 31.7375 27.9701 31.5285C28.1204 31.3203 28.4125 31.2718 28.6207 31.4202L40.754 40.0871C40.964 40.2374 41.0125 40.5295 40.8623 40.7386C40.7708 40.8655 40.628 40.9337 40.4824 40.9337Z" fill="#472B29"/>
<path d="M32.5492 13.6001H26.9492V21.0668H32.5492V13.6001Z" fill="#CBC9BC"/>
<path d="M32.5496 21.0668H27.2158V13.6001H32.5496V18.6168" fill="#CBC9BC"/>
<path d="M32.5491 21.5333H26.9491C26.6915 21.5333 26.4824 21.3242 26.4824 21.0666V13.6C26.4824 13.3424 26.6915 13.1333 26.9491 13.1333H32.5491C32.8067 13.1333 33.0158 13.3424 33.0158 13.6V18.6166C33.0158 18.8742 32.8067 19.0833 32.5491 19.0833C32.2915 19.0833 32.0824 18.8742 32.0824 18.6166V14.0666H27.4158V20.6H32.5491C32.8067 20.6 33.0158 20.809 33.0158 21.0666C33.0158 21.3242 32.8067 21.5333 32.5491 21.5333Z" fill="#472B29"/>
</svg>
