<svg width="45" height="44" viewBox="0 0 45 44" fill="none" xmlns="http://www.w3.org/2000/svg">
<path d="M15.686 42.3772L12.7078 37.8567L7.27051 38.9359L13.9164 22.6855L22.3318 26.1269L15.686 42.3772Z" fill="#60BE92"/>
<path d="M15.7957 43.4999L12.4633 38.4416L6.41309 39.6426L13.629 21.9988L23.0184 25.8387L15.7957 43.4999ZM12.9537 37.2714L15.5776 41.2543L21.6459 26.4156L14.2051 23.3728L8.12851 38.2288L12.9537 37.2714Z" fill="#472B29"/>
<path d="M29.8138 42.3772L32.792 37.8567L38.2293 38.9359L31.5834 22.6855L23.168 26.1269L29.8138 42.3772Z" fill="#60BE92"/>
<path d="M29.7041 43.4999L22.4814 25.8395L31.8708 21.9995L39.0867 39.6434L33.0365 38.4423L29.7041 43.4999ZM23.8539 26.4148L29.9222 41.2535L32.5461 37.2706L37.3705 38.2273L31.294 23.3713L23.8539 26.4148Z" fill="#472B29"/>
<path d="M25.5595 31.0708C25.3091 31.0708 25.0669 31.0159 24.8405 30.9061L23.9275 30.4646C23.5628 30.2879 23.1552 30.1947 22.7498 30.1947C22.3445 30.1947 21.9369 30.2879 21.5714 30.4646L20.6591 30.9061C20.4328 31.0159 20.1906 31.0708 19.9402 31.0708C19.4521 31.0715 18.9918 30.858 18.6775 30.4857L18.0224 29.7103C17.508 29.1004 16.7552 28.7515 15.9566 28.7515C15.9566 28.7515 14.8548 28.7853 14.8541 28.7853C14.0712 28.7853 13.4206 28.2957 13.2168 27.5941L12.9341 26.6194C12.7024 25.8215 12.1279 25.1837 11.3578 24.8686L10.4177 24.4858C9.71905 24.2008 9.30242 23.4788 9.4047 22.7313L9.54307 21.7266C9.65663 20.9023 9.39116 20.0856 8.81509 19.4862L8.11267 18.7545C7.59 18.2092 7.50276 17.3805 7.90059 16.739L8.4353 15.8771C8.87375 15.1709 8.96399 14.3166 8.68198 13.5345L8.33754 12.5794C8.08184 11.8694 8.33904 11.0768 8.96324 10.6526L9.80253 10.0826C10.4907 9.61554 10.9201 8.87251 10.9802 8.04225L11.0547 7.02999C11.1096 6.27718 11.6669 5.65825 12.4099 5.52513L13.4086 5.34615C14.2268 5.1995 14.9217 4.69412 15.3151 3.96012L15.7941 3.06668C16.0822 2.52821 16.6402 2.1943 17.2508 2.1943C17.3832 2.1943 17.5163 2.21009 17.6449 2.24168L18.6301 2.48384C18.8414 2.53573 19.0588 2.56205 19.2761 2.56205C19.8732 2.56205 20.4621 2.35975 20.9344 1.9935L21.7361 1.37156C22.0294 1.14594 22.3798 1.02637 22.7498 1.02637C23.1198 1.02637 23.4703 1.14594 23.7628 1.37306L24.5645 1.99501C25.0361 2.36126 25.6257 2.56356 26.2228 2.56356C26.4409 2.56356 26.6582 2.53724 26.8696 2.48534L27.8548 2.24319C27.9841 2.2116 28.1172 2.1958 28.2488 2.1958C28.8587 2.1958 29.4168 2.52972 29.7048 3.06743L30.1846 3.96162C30.5772 4.69487 31.2721 5.1995 32.0903 5.3469L33.089 5.52589C33.8321 5.659 34.3893 6.27794 34.4442 7.03074L34.5187 8.043C34.5796 8.87326 35.0083 9.61629 35.6964 10.0833L36.5349 10.6526C37.1591 11.076 37.4163 11.8687 37.1606 12.5794L36.8162 13.5345C36.5342 14.3166 36.6244 15.1709 37.0629 15.8771L37.5976 16.739C37.9954 17.3805 37.9082 18.2092 37.3855 18.7545L36.6831 19.4862C36.107 20.0863 35.8415 20.9031 35.9551 21.7266L36.0935 22.7321C36.1957 23.4788 35.7791 24.2008 35.0797 24.4858L34.1404 24.8686C33.3703 25.1837 32.7957 25.8222 32.5641 26.6194L32.2813 27.5941C32.0775 28.2957 31.4255 28.7861 30.6952 28.7861L29.5416 28.7515C28.7429 28.7515 27.9901 29.1012 27.4757 29.7111L26.8214 30.4849C26.5078 30.858 26.0476 31.0708 25.5595 31.0708Z" fill="#FCBA7F"/>
<path d="M22.7493 1.55287C23.0013 1.55287 23.2404 1.63484 23.4397 1.78902L24.2407 2.41096C24.8047 2.84865 25.5079 3.08931 26.2216 3.08931C26.481 3.08931 26.7412 3.05772 26.9939 2.9953L27.9791 2.75314C28.0678 2.73133 28.1581 2.7208 28.2483 2.7208C28.6635 2.7208 29.044 2.94868 29.2403 3.31493L29.7193 4.20911C30.1886 5.08525 31.0181 5.68765 31.9966 5.86363L32.9945 6.04261C33.5007 6.13361 33.8804 6.55551 33.918 7.06841L33.9917 8.07992C34.0639 9.07112 34.5768 9.96004 35.3988 10.5173L36.2381 11.0874C36.6638 11.3762 36.839 11.9161 36.6645 12.4005L36.3208 13.3548C35.9839 14.2888 36.0915 15.3094 36.6149 16.1539L37.1496 17.0158C37.4211 17.4535 37.3617 18.0175 37.0052 18.389L36.3028 19.1208C35.6147 19.8375 35.2981 20.8129 35.4327 21.7981L35.5711 22.8028C35.641 23.3127 35.3575 23.8038 34.8807 23.9978L33.9414 24.3806C33.0216 24.7559 32.335 25.5177 32.0575 26.4721L31.7747 27.446C31.6363 27.9235 31.1926 28.2574 30.6594 28.2574C30.6587 28.2574 30.6587 28.2574 30.6579 28.2574L29.6434 28.2251L29.5419 28.2236C28.5883 28.2236 27.6881 28.6417 27.0729 29.3697L26.4186 30.1443C26.2043 30.3985 25.8907 30.5437 25.5575 30.5437C25.3868 30.5437 25.2228 30.5061 25.0687 30.4316L24.1557 29.9902C23.7195 29.7788 23.2329 29.6675 22.7478 29.6675C22.2635 29.6675 21.7762 29.7788 21.3408 29.9902L20.4278 30.4316C20.2736 30.5061 20.1089 30.5437 19.9389 30.5437C19.6065 30.5437 19.2922 30.3985 19.0778 30.1443L18.4235 29.3697C17.8084 28.641 16.9082 28.2236 15.9546 28.2236L15.8523 28.2251L14.8024 28.2582C14.3053 28.2582 13.8609 27.9243 13.7225 27.446L13.4397 26.4721C13.163 25.5177 12.4763 24.7551 11.5566 24.3806L10.6173 23.9978C10.1412 23.8038 9.85694 23.312 9.92688 22.8028L10.0645 21.7981C10.1999 20.8136 9.88251 19.8382 9.19438 19.1208L8.49197 18.389C8.13549 18.0175 8.07683 17.4535 8.34757 17.0165L8.88228 16.1547C9.40571 15.3101 9.51325 14.2904 9.17633 13.3556L8.83265 12.4012C8.65817 11.9169 8.8334 11.3777 9.25906 11.0881L10.0983 10.5181C10.9203 9.96004 11.4332 9.07187 11.5062 8.08067L11.5799 7.06916C11.6175 6.55626 11.9973 6.13436 12.5034 6.04337L13.5021 5.86438C14.4798 5.6884 15.3101 5.08525 15.7786 4.20987L16.2576 3.31568C16.4539 2.94943 16.8345 2.72156 17.2496 2.72156C17.3398 2.72156 17.4301 2.73284 17.5188 2.7539L18.504 2.99606C18.7567 3.05848 19.0162 3.09006 19.2756 3.09006C19.9893 3.09006 20.6932 2.84941 21.2565 2.41171L22.0575 1.78977C22.2583 1.63484 22.4974 1.55287 22.7493 1.55287ZM22.7493 0.5C22.2778 0.5 21.8063 0.652666 21.4137 0.957247L20.612 1.57919C20.2262 1.87851 19.7554 2.03644 19.2764 2.03644C19.1026 2.03644 18.9282 2.01538 18.756 1.97327L17.7708 1.73111C17.597 1.68824 17.4226 1.66793 17.2503 1.66793C16.4614 1.66793 15.7162 2.09811 15.3304 2.81782L14.8513 3.71201C14.537 4.29861 13.9714 4.70998 13.3164 4.8273L12.3176 5.00629C11.3385 5.18227 10.603 5.99899 10.53 6.9917L10.4563 8.00321C10.4074 8.66727 10.0585 9.27267 9.50723 9.64644L8.66795 10.2165C7.8452 10.776 7.50528 11.8214 7.84219 12.7569L8.18588 13.7113C8.4115 14.3377 8.33855 15.0326 7.98734 15.5982L7.45263 16.46C6.9277 17.3061 7.04276 18.3988 7.73164 19.117L8.43406 19.8488C8.89507 20.3293 9.1109 20.9941 9.02066 21.6537L8.88228 22.6584C8.74691 23.6444 9.29666 24.5965 10.2179 24.9717L11.1572 25.3545C11.7739 25.6057 12.2417 26.1254 12.4267 26.7646L12.7095 27.7385C12.9802 28.6718 13.8345 29.3096 14.8009 29.3096C14.8242 29.3096 14.8475 29.3096 14.8709 29.3088L15.8846 29.2765C15.9079 29.2757 15.9305 29.2757 15.9531 29.2757C16.5938 29.2757 17.203 29.5577 17.6181 30.0488L18.2724 30.8234C18.6973 31.3258 19.311 31.5965 19.9374 31.5965C20.2578 31.5965 20.5819 31.5259 20.885 31.3792L21.798 30.9377C22.0973 30.7926 22.4222 30.7197 22.7471 30.7197C23.072 30.7197 23.3961 30.7926 23.6962 30.9377L24.6092 31.3792C24.9122 31.5259 25.2364 31.5965 25.5567 31.5965C26.1832 31.5965 26.7976 31.3266 27.2218 30.8234L27.8761 30.0488C28.2905 29.5577 28.9004 29.2757 29.5411 29.2757C29.5637 29.2757 29.587 29.2757 29.6095 29.2765L30.6233 29.3088C30.6466 29.3096 30.6699 29.3096 30.6933 29.3096C31.6589 29.3096 32.514 28.6711 32.7847 27.7385L33.0675 26.7646C33.2532 26.1254 33.721 25.6057 34.3369 25.3545L35.2762 24.9717C36.1975 24.5957 36.7473 23.6436 36.6119 22.6584L36.4735 21.6537C36.3833 20.9941 36.5991 20.3293 37.0601 19.8488L37.7625 19.117C38.4514 18.3988 38.5665 17.3061 38.0415 16.46L37.5068 15.5982C37.1556 15.0326 37.0827 14.337 37.3083 13.7113L37.652 12.7569C37.9897 11.8206 37.6497 10.7753 36.8262 10.2165L35.9869 9.64644C35.4364 9.27267 35.0867 8.66727 35.0378 8.00321L34.9641 6.9917C34.892 5.99975 34.1557 5.18227 33.1765 5.00629L32.1778 4.8273C31.5228 4.70923 30.9572 4.29861 30.6429 3.71201L30.1638 2.81782C29.778 2.09811 29.0327 1.66793 28.2438 1.66793C28.0716 1.66793 27.8964 1.68824 27.7234 1.73111L26.7382 1.97327C26.566 2.01538 26.3915 2.03644 26.2178 2.03644C25.7387 2.03644 25.268 1.87851 24.8822 1.57919L24.0805 0.957247C23.6924 0.652666 23.2209 0.5 22.7493 0.5Z" fill="#472B29"/>
<path d="M33.8433 13.2639C33.6823 13.2639 33.5334 13.1593 33.4838 12.9976C33.4341 12.8344 33.38 12.6735 33.3228 12.5141C33.101 11.8944 32.8212 11.2905 32.4903 10.7189C32.3858 10.5399 32.4475 10.3098 32.6272 10.2053C32.8069 10.0985 33.0363 10.1616 33.1408 10.3429C33.4943 10.9528 33.7936 11.5981 34.0305 12.2599C34.0914 12.4298 34.1486 12.6021 34.2027 12.7773C34.2637 12.9758 34.1524 13.1864 33.9531 13.2473C33.917 13.2586 33.8794 13.2639 33.8433 13.2639ZM11.3863 14.0738C11.3592 14.0738 11.3321 14.0708 11.3051 14.0648C11.102 14.0197 10.9742 13.8189 11.0193 13.6158C12.2226 8.17774 17.156 4.23022 22.7505 4.23022C26.1881 4.23022 29.4678 5.70274 31.748 8.27099C31.9203 8.46653 32.0865 8.66507 32.2459 8.86963C32.373 9.03357 32.3444 9.26972 32.1805 9.39757C32.0158 9.52391 31.7796 9.49533 31.6525 9.33214C31.5029 9.13961 31.3472 8.95235 31.1848 8.7696C29.0474 6.36304 25.973 4.98228 22.7498 4.98228C17.5057 4.98228 12.8806 8.68161 11.7533 13.779C11.7142 13.9542 11.5592 14.0738 11.3863 14.0738ZM22.7498 28.1838C16.8935 28.1838 11.9165 24.0152 10.9147 18.2718C10.8794 18.0672 11.0163 17.8724 11.2208 17.8371C11.4299 17.7935 11.6202 17.9386 11.6563 18.1424C12.5941 23.5248 17.2598 27.4317 22.7498 27.4317C28.9587 27.4317 34.0102 22.3968 34.0102 16.2074C34.0102 15.6433 33.9681 15.0763 33.8846 14.5228C33.8538 14.3182 33.9952 14.1265 34.2005 14.0956C34.408 14.067 34.5976 14.2054 34.6284 14.4115C34.7171 15.0018 34.7623 15.6065 34.7623 16.2081C34.7623 22.8111 29.3738 28.1838 22.7498 28.1838ZM34.8676 36.3781C34.7931 36.3781 34.7232 36.3338 34.6931 36.2608L33.9523 34.4258C33.9132 34.3295 33.9598 34.2205 34.0561 34.1814C34.1508 34.1408 34.2614 34.1882 34.3013 34.2852L35.042 36.1202C35.0811 36.2164 35.0345 36.3255 34.9382 36.3646C34.9149 36.3736 34.8916 36.3781 34.8676 36.3781Z" fill="#472B29"/>
<path d="M33.5864 33.2037C33.5119 33.2037 33.442 33.1593 33.4119 33.0864L31.7062 28.8614C31.6671 28.7651 31.7137 28.656 31.81 28.6169C31.9048 28.5756 32.0153 28.6237 32.0552 28.7207L33.7608 32.9457C33.7999 33.042 33.7533 33.151 33.657 33.1902C33.6337 33.1992 33.6097 33.2037 33.5864 33.2037Z" fill="#472B29"/>
<path d="M15.1131 38.3877C15.0883 38.3877 15.0635 38.3824 15.0394 38.3726C14.9439 38.3313 14.8988 38.2215 14.9402 38.126L15.714 36.3037C15.7546 36.2075 15.8659 36.1661 15.9607 36.2037C16.0562 36.2451 16.1013 36.3549 16.06 36.4504L15.2861 38.2726C15.256 38.3448 15.1861 38.3877 15.1131 38.3877Z" fill="#472B29"/>
<path d="M16.452 35.2364C16.4272 35.2364 16.4024 35.2311 16.3783 35.2213C16.2828 35.18 16.2377 35.0702 16.279 34.9747L16.6611 34.076C16.7017 33.9797 16.813 33.9383 16.9078 33.9759C17.0033 34.0173 17.0484 34.1271 17.007 34.2226L16.625 35.1213C16.5942 35.1943 16.525 35.2364 16.452 35.2364Z" fill="#472B29"/>
<path d="M17.2616 33.3322C17.2368 33.3322 17.2119 33.3269 17.1879 33.3171C17.0924 33.2758 17.0473 33.166 17.0886 33.0705L18.061 30.7805C18.1016 30.6842 18.2129 30.6436 18.3077 30.6804C18.4032 30.7218 18.4483 30.8316 18.407 30.9271L17.4346 33.2171C17.4037 33.2901 17.3345 33.3322 17.2616 33.3322Z" fill="#472B29"/>
<path d="M21.3711 21.395C21.1222 21.395 20.8838 21.304 20.6996 21.1393L15.8225 16.3487C15.6307 16.1772 15.5149 15.9343 15.5021 15.6711C15.4894 15.4079 15.5819 15.1552 15.7624 14.9604C15.9519 14.7566 16.2211 14.6393 16.5016 14.6393C16.7498 14.6393 16.9882 14.7295 17.1724 14.8942L21.3614 19.0583L28.3938 12.1192C28.5841 11.9424 28.8277 11.8469 29.0834 11.8469C29.3609 11.8469 29.6181 11.9567 29.8092 12.1553C29.9934 12.3463 30.0904 12.5967 30.0829 12.8607C30.0754 13.1247 29.9641 13.3698 29.7685 13.5511L22.06 21.1235C21.8705 21.2994 21.6276 21.395 21.3711 21.395Z" fill="#FEFDEF"/>
<path d="M29.0815 12.035C29.2966 12.035 29.5117 12.1184 29.6719 12.2854C29.9802 12.6058 29.9652 13.1104 29.6388 13.4127L21.9273 20.9896C21.7716 21.1348 21.5708 21.2077 21.3708 21.2077C21.1752 21.2077 20.9797 21.1385 20.8248 21.0002L15.9545 16.2149C15.6228 15.9185 15.5988 15.4139 15.9003 15.0883C16.0605 14.9153 16.2809 14.8273 16.502 14.8273C16.6968 14.8273 16.8915 14.8958 17.0472 15.0341L21.361 19.3223L28.5258 12.2531C28.6814 12.1079 28.8815 12.035 29.0815 12.035ZM29.0815 11.6589C28.7785 11.6589 28.4897 11.7717 28.2686 11.9771L21.361 18.7929L17.3112 14.7672C17.0781 14.5581 16.7953 14.4505 16.5012 14.4505C16.1688 14.4505 15.8492 14.5897 15.6243 14.8311C15.4092 15.0635 15.2994 15.3643 15.3137 15.6786C15.3288 15.993 15.4672 16.2825 15.7033 16.4939L20.5608 21.2664C20.7924 21.4739 21.0752 21.5822 21.3708 21.5822C21.6738 21.5822 21.9626 21.4694 22.1837 21.2634L29.9028 13.6797C30.1276 13.4721 30.2607 13.1796 30.2698 12.8652C30.2788 12.5509 30.163 12.2523 29.9434 12.0237C29.72 11.7928 29.4057 11.6589 29.0815 11.6589Z" fill="#472B29"/>
</svg>
