<svg width="364" height="364" viewBox="0 0 364 364" fill="none" xmlns="http://www.w3.org/2000/svg">
<g opacity="0.05" filter="url(#filter0_f)">
<path fill-rule="evenodd" clip-rule="evenodd" d="M182 282C237.228 282 282 237.228 282 182C282 126.772 237.228 82 182 82C126.772 82 82 126.772 82 182C82 237.228 126.772 282 182 282Z" fill="#273142"/>
</g>
<g opacity="0.05" filter="url(#filter1_f)">
<path fill-rule="evenodd" clip-rule="evenodd" d="M182 282C237.228 282 282 237.228 282 182C282 126.772 237.228 82 182 82C126.772 82 82 126.772 82 182C82 237.228 126.772 282 182 282Z" fill="white"/>
</g>
<path opacity="0.171592" fill-rule="evenodd" clip-rule="evenodd" d="M162.411 281.02C166.355 281.02 169.551 280.177 169.551 279.138C169.551 278.098 166.355 277.256 162.411 277.256C158.467 277.256 155.271 278.098 155.271 279.138C155.271 280.177 158.467 281.02 162.411 281.02Z" fill="#32314F"/>
<path opacity="0.171592" fill-rule="evenodd" clip-rule="evenodd" d="M188.116 280.312C190.745 280.312 192.877 279.733 192.877 279.018C192.877 278.303 190.745 277.724 188.116 277.724C185.487 277.724 183.356 278.303 183.356 279.018C183.356 279.733 185.487 280.312 188.116 280.312Z" fill="#32314F"/>
<path fill-rule="evenodd" clip-rule="evenodd" d="M232.268 136.686C232.268 136.686 233.377 129.828 234.786 126.288C236.196 122.749 236.905 120.43 236.905 120.43C236.905 120.43 238.092 119.566 237.911 121.292C237.73 123.019 236.905 126.288 236.905 126.288C236.905 126.288 239.86 127.017 240.856 127.731C241.853 128.444 240.405 130.797 239.014 133.902C237.623 137.008 236.196 139.77 236.196 139.77L232.268 136.686Z" fill="#FFE1CA"/>
<path fill-rule="evenodd" clip-rule="evenodd" d="M158.001 136.18C158.001 136.18 156.892 129.322 155.482 125.783C154.073 122.243 153.364 119.924 153.364 119.924C153.364 119.924 152.176 119.06 152.357 120.787C152.538 122.513 153.364 125.783 153.364 125.783C153.364 125.783 150.408 126.511 149.412 127.225C148.416 127.938 149.863 130.291 151.254 133.397C152.645 136.502 154.073 139.264 154.073 139.264L158.001 136.18Z" fill="#FFE1CA"/>
<g filter="url(#filter2_i)">
<path fill-rule="evenodd" clip-rule="evenodd" d="M162.296 266.452C162.296 266.452 160.283 227.62 169.491 198.166C178.699 168.712 186.833 203.048 186.833 203.048C186.833 203.048 185.951 212.101 184.874 214.402C183.796 216.703 178.277 229.036 176.33 234.263C174.384 239.49 171.242 247.15 169.491 251.619C167.74 256.087 164.092 264.312 164.549 266.452C165.005 268.592 162.296 266.452 162.296 266.452Z" fill="#9A9FA8"/>
<path fill-rule="evenodd" clip-rule="evenodd" d="M162.296 266.452C162.296 266.452 160.283 227.62 169.491 198.166C178.699 168.712 186.833 203.048 186.833 203.048C186.833 203.048 185.951 212.101 184.874 214.402C183.796 216.703 178.277 229.036 176.33 234.263C174.384 239.49 171.242 247.15 169.491 251.619C167.74 256.087 164.092 264.312 164.549 266.452C165.005 268.592 162.296 266.452 162.296 266.452Z" stroke="#9A9FA8"/>
</g>
<path fill-rule="evenodd" clip-rule="evenodd" d="M160.053 267.152C160.342 265.56 161.797 264.448 163.409 264.587C165.021 264.726 166.258 266.07 166.262 267.687L166.286 276.212C166.292 278.512 164.321 280.325 162.03 280.127C159.738 279.929 158.117 277.807 158.528 275.543L160.053 267.152Z" fill="#9A9FA8"/>
<g filter="url(#filter3_i)">
<path fill-rule="evenodd" clip-rule="evenodd" d="M184.706 223.811C184.706 217.504 181.883 208.479 182.802 204.783C183.721 201.087 202.166 202.255 202.166 202.255C202.166 202.255 202.398 220.878 200.348 225.021C198.298 229.164 189.396 238.624 189.396 238.624C189.396 238.624 188.334 233.878 186.079 234.006C183.824 234.133 183.171 236.519 183.171 236.519C183.171 236.519 182.927 234.485 183.816 232.017C184.706 229.548 184.706 230.118 184.706 223.811Z" fill="#9A9FA8"/>
<path fill-rule="evenodd" clip-rule="evenodd" d="M184.706 223.811C184.706 217.504 181.883 208.479 182.802 204.783C183.721 201.087 202.166 202.255 202.166 202.255C202.166 202.255 202.398 220.878 200.348 225.021C198.298 229.164 189.396 238.624 189.396 238.624C189.396 238.624 188.334 233.878 186.079 234.006C183.824 234.133 183.171 236.519 183.171 236.519C183.171 236.519 182.927 234.485 183.816 232.017C184.706 229.548 184.706 230.118 184.706 223.811Z" stroke="#9A9FA8"/>
</g>
<path fill-rule="evenodd" clip-rule="evenodd" d="M152.574 136.998C155.634 136.998 158.574 134.389 158.574 134.389C158.574 134.389 164.762 155.908 180.16 163.121C188.371 168.059 195.056 169.711 203.689 164.723C213.847 165.366 230.649 149.011 232.34 134.389C232.81 136.481 236.668 137.419 237.892 137.419C236.172 144.845 231.55 163.909 207.035 175.323C200.873 180.113 203.689 195.999 206.559 203.443C202.551 206.833 182.894 210.374 164.762 200.632C168.68 198.81 176.202 180.536 170.867 171.228C160.622 159.518 154.807 144.258 152.574 136.998Z" fill="#E98E49"/>
<path fill-rule="evenodd" clip-rule="evenodd" d="M201.445 149.986C201.445 150.516 201.394 151.036 201.297 151.54C203.575 152.796 205.101 154.835 205.242 157.16C205.277 157.227 205.304 157.293 205.323 157.361C206.296 160.782 203.519 166.245 201.357 168.098C200.767 168.604 200.43 169.239 200.251 169.895C202.162 171.348 203.349 173.38 203.349 175.628C203.349 177.883 202.155 179.92 200.234 181.374C202.388 186.561 201.178 192.161 197.1 194.577C195.816 195.337 194.383 195.702 192.908 195.71C190.948 197.569 188.453 198.682 185.736 198.682C179.426 198.682 174.311 192.678 174.311 185.272C174.311 180.593 176.353 176.474 179.448 174.075C178.022 172.7 177.168 170.948 177.168 169.041C177.168 166.654 178.505 164.511 180.627 163.046C181.812 161.439 183.04 159.605 183.368 158.504C183.881 156.777 183.45 153.693 183.206 152.282C182.994 151.551 182.88 150.78 182.88 149.986C182.88 145.178 187.036 141.281 192.162 141.281C197.289 141.281 201.445 145.178 201.445 149.986Z" fill="#273142"/>
<path fill-rule="evenodd" clip-rule="evenodd" d="M183.307 236.346C183.429 234.739 184.768 233.498 186.379 233.498C187.99 233.498 189.329 234.739 189.451 236.346L190.339 248.046C190.514 250.351 188.691 252.318 186.379 252.318C184.067 252.318 182.244 250.351 182.419 248.046L183.307 236.346Z" fill="#9A9FA8"/>
<g opacity="0.2">
<path fill-rule="evenodd" clip-rule="evenodd" d="M188.592 227.732C189.726 227.279 192.898 227.111 194.243 228.185L188.592 227.732Z" fill="#286BB8"/>
<path d="M188.592 227.732C189.726 227.279 192.898 227.111 194.243 228.185" stroke="#286BB8" stroke-width="0.5625" stroke-linecap="round"/>
</g>
<path fill-rule="evenodd" clip-rule="evenodd" d="M248.654 224.959C248.654 224.959 247.226 225.996 245.931 226.683C244.134 227.635 241.859 227.648 241.816 227.555C241.584 227.052 243.766 224.718 245.279 224.432C246.64 224.175 248.654 224.959 248.654 224.959Z" fill="#5895DA"/>
<path fill-rule="evenodd" clip-rule="evenodd" d="M238.093 200.901C238.093 200.901 242.896 210.87 252.146 212.761C252.132 214.373 251.345 217.368 248.77 224.787C248.41 225.824 245.298 224.439 245.298 224.439C245.298 224.439 243.239 228.073 241.987 227.547C234.754 224.506 231.716 221.503 230.7 217.528C230.901 210.993 238.093 200.901 238.093 200.901Z" fill="#367FD3"/>
<path fill-rule="evenodd" clip-rule="evenodd" d="M121.283 103.515C125.979 105.09 128.773 110.416 129.898 115.821C133.333 113.576 138.838 109.117 142.8 105.256C142.989 105.073 143.275 104.336 143.429 104.141C144.361 102.963 143.798 101.727 143.777 101.08C142.699 97.8993 142.208 95.0683 139.705 92.4465C138.421 91.1022 137.247 90.1071 136.681 89.7942C134.231 90.6285 132.146 94.5989 121.283 103.515Z" fill="#9E1068"/>
<path fill-rule="evenodd" clip-rule="evenodd" d="M141.169 101.921C142.534 101.838 143.829 104.186 142.515 105.56C143.897 104.087 144.08 102.794 144.056 101.724C144.032 100.654 143.948 95.6553 136.679 89.8067C142.606 94.9891 144.181 98.9634 141.169 101.921Z" fill="#780650"/>
<g opacity="0.379755">
<path d="M227.627 262.852C234.274 258.308 237.864 250.233 232.745 245.259" stroke="url(#paint0_linear)" stroke-width="2.25" stroke-linecap="round"/>
<path d="M111 249.022C115.111 253.283 129.483 259.172 147.966 259.912" stroke="url(#paint1_linear)" stroke-width="2.25" stroke-linecap="round"/>
<path d="M183.356 261.432C183.356 261.432 220.128 260.877 220.792 249.77C221.456 238.664 206.666 239.541 208.24 244.656" stroke="url(#paint2_linear)" stroke-width="2.25" stroke-linecap="round"/>
<path d="M178.12 273.131C178.12 273.131 198.939 274.541 212.14 269.724" stroke="url(#paint3_linear)" stroke-width="2.25" stroke-linecap="round"/>
<path d="M116.236 264.078C116.236 264.078 129.123 270.179 142.011 270.653" stroke="url(#paint4_linear)" stroke-width="2.25" stroke-linecap="round"/>
</g>
<defs>
<filter id="filter0_f" x="0.451546" y="0.451546" width="363.097" height="363.097" filterUnits="userSpaceOnUse" color-interpolation-filters="sRGB">
<feFlood flood-opacity="0" result="BackgroundImageFix"/>
<feBlend mode="normal" in="SourceGraphic" in2="BackgroundImageFix" result="shape"/>
<feGaussianBlur stdDeviation="40.7742" result="effect1_foregroundBlur"/>
</filter>
<filter id="filter1_f" x="0.451546" y="0.451546" width="363.097" height="363.097" filterUnits="userSpaceOnUse" color-interpolation-filters="sRGB">
<feFlood flood-opacity="0" result="BackgroundImageFix"/>
<feBlend mode="normal" in="SourceGraphic" in2="BackgroundImageFix" result="shape"/>
<feGaussianBlur stdDeviation="40.7742" result="effect1_foregroundBlur"/>
</filter>
<filter id="filter2_i" x="162.11" y="186.231" width="24.7233" height="81.1721" filterUnits="userSpaceOnUse" color-interpolation-filters="sRGB">
<feFlood flood-opacity="0" result="BackgroundImageFix"/>
<feBlend mode="normal" in="SourceGraphic" in2="BackgroundImageFix" result="shape"/>
<feColorMatrix in="SourceAlpha" type="matrix" values="0 0 0 0 0 0 0 0 0 0 0 0 0 0 0 0 0 0 127 0" result="hardAlpha"/>
<feOffset dx="-2" dy="-4"/>
<feComposite in2="hardAlpha" operator="arithmetic" k2="-1" k3="1"/>
<feColorMatrix type="matrix" values="0 0 0 0 1 0 0 0 0 1 0 0 0 0 1 0 0 0 0.2 0"/>
<feBlend mode="normal" in2="shape" result="effect1_innerShadow"/>
</filter>
<filter id="filter3_i" x="182.618" y="202.08" width="19.5556" height="36.5435" filterUnits="userSpaceOnUse" color-interpolation-filters="sRGB">
<feFlood flood-opacity="0" result="BackgroundImageFix"/>
<feBlend mode="normal" in="SourceGraphic" in2="BackgroundImageFix" result="shape"/>
<feColorMatrix in="SourceAlpha" type="matrix" values="0 0 0 0 0 0 0 0 0 0 0 0 0 0 0 0 0 0 127 0" result="hardAlpha"/>
<feOffset dx="-3" dy="1"/>
<feComposite in2="hardAlpha" operator="arithmetic" k2="-1" k3="1"/>
<feColorMatrix type="matrix" values="0 0 0 0 0 0 0 0 0 0 0 0 0 0 0 0 0 0 0.1 0"/>
<feBlend mode="normal" in2="shape" result="effect1_innerShadow"/>
</filter>
<linearGradient id="paint0_linear" x1="225.74" y1="266.66" x2="237.601" y2="268.435" gradientUnits="userSpaceOnUse">
<stop stop-color="white" stop-opacity="0.01"/>
<stop offset="1" stop-color="#273142"/>
</linearGradient>
<linearGradient id="paint1_linear" x1="101.759" y1="262.269" x2="126.482" y2="291.555" gradientUnits="userSpaceOnUse">
<stop stop-color="white" stop-opacity="0.01"/>
<stop offset="1" stop-color="#273142"/>
</linearGradient>
<linearGradient id="paint2_linear" x1="173.992" y1="265.849" x2="216.684" y2="293.193" gradientUnits="userSpaceOnUse">
<stop stop-color="white" stop-opacity="0.01"/>
<stop offset="1" stop-color="#273142"/>
</linearGradient>
<linearGradient id="paint3_linear" x1="169.615" y1="274.257" x2="174.52" y2="289.883" gradientUnits="userSpaceOnUse">
<stop stop-color="white" stop-opacity="0.01"/>
<stop offset="1" stop-color="#273142"/>
</linearGradient>
<linearGradient id="paint4_linear" x1="109.793" y1="272.076" x2="124.221" y2="291.813" gradientUnits="userSpaceOnUse">
<stop stop-color="white" stop-opacity="0.01"/>
<stop offset="1" stop-color="#273142"/>
</linearGradient>
</defs>
</svg>
