<svg width="364" height="364" viewBox="0 0 364 364" fill="none" xmlns="http://www.w3.org/2000/svg">
<g opacity="0.05" filter="url(#filter0_f)">
<path fill-rule="evenodd" clip-rule="evenodd" d="M182 282C237.228 282 282 237.228 282 182C282 126.772 237.228 82 182 82C126.772 82 82 126.772 82 182C82 237.228 126.772 282 182 282Z" fill="#1F2735"/>
</g>
<path d="M130.608 246.353C141.023 246.353 149.465 237.903 149.465 227.478C149.465 217.053 141.023 208.603 130.608 208.603C120.194 208.603 111.751 217.053 111.751 227.478C111.751 237.903 120.194 246.353 130.608 246.353Z" fill="#5E9FE0"/>
<path d="M121.158 199.416H121.158C117.689 200.581 113.91 200.41 110.56 198.936C107.21 197.463 104.53 194.792 103.041 191.447L82.7031 145.731C81.5867 143.222 81.0067 140.507 81.0001 137.76C80.9934 135.014 81.5604 132.296 82.6646 129.781C83.7688 127.267 85.3859 125.011 87.4122 123.158C89.4384 121.306 91.8291 119.897 94.4309 119.024L94.4309 119.024C97.0459 118.146 99.8159 117.827 102.562 118.089C105.307 118.35 107.968 119.186 110.37 120.542C112.773 121.898 114.864 123.744 116.508 125.961C118.153 128.177 119.314 130.714 119.916 133.408L130.834 182.243C131.628 185.796 131.079 189.518 129.292 192.69C127.505 195.862 124.607 198.258 121.158 199.416Z" fill="#5E9FE0"/>
<path opacity="0.1" d="M130.608 246.353C141.023 246.353 149.465 237.903 149.465 227.478C149.465 217.053 141.023 208.603 130.608 208.603C120.194 208.603 111.751 217.053 111.751 227.478C111.751 237.903 120.194 246.353 130.608 246.353Z" fill="black"/>
<path opacity="0.1" d="M121.158 199.416H121.158C117.689 200.581 113.91 200.41 110.56 198.936C107.21 197.463 104.53 194.792 103.041 191.447L82.7031 145.731C81.5867 143.222 81.0067 140.507 81.0001 137.76C80.9934 135.014 81.5604 132.296 82.6646 129.781C83.7688 127.267 85.3859 125.011 87.4122 123.158C89.4384 121.306 91.8291 119.897 94.4309 119.024L94.4309 119.024C97.0459 118.146 99.8159 117.827 102.562 118.089C105.307 118.35 107.968 119.186 110.37 120.542C112.773 121.898 114.864 123.744 116.508 125.961C118.153 128.177 119.314 130.714 119.916 133.408L130.834 182.243C131.628 185.796 131.079 189.518 129.292 192.69C127.505 195.862 124.607 198.258 121.158 199.416Z" fill="black"/>
<path d="M130.028 240.545C138.36 240.545 145.114 233.785 145.114 225.445C145.114 217.105 138.36 210.345 130.028 210.345C121.697 210.345 114.943 217.105 114.943 225.445C114.943 233.785 121.697 240.545 130.028 240.545Z" fill="#5E9FE0"/>
<path d="M119.359 194.252C116.17 195.323 112.698 195.165 109.619 193.812C106.54 192.458 104.076 190.004 102.708 186.931L84.0158 144.931C82.9898 142.625 82.4567 140.131 82.4506 137.607C82.4445 135.084 82.9656 132.587 83.9805 130.277C84.9953 127.967 86.4815 125.894 88.3438 124.192C90.2061 122.49 92.4033 121.196 94.7946 120.394C97.1979 119.587 99.7438 119.294 102.267 119.535C104.791 119.775 107.236 120.543 109.444 121.789C111.652 123.035 113.574 124.73 115.085 126.767C116.597 128.803 117.664 131.134 118.217 133.609L128.252 178.475C128.982 181.74 128.477 185.159 126.834 188.073C125.192 190.987 122.529 193.188 119.359 194.252Z" fill="#5E9FE0"/>
<path fill-rule="evenodd" clip-rule="evenodd" d="M138 217C138 212.582 141.582 209 146 209H257C261.418 209 265 212.582 265 217V237C265 241.418 261.418 245 257 245H146C141.582 245 138 241.418 138 237V217Z" fill="#EAEBEF"/>
<path opacity="0.4" fill-rule="evenodd" clip-rule="evenodd" d="M174 217.902C174 216.852 174.852 216 175.902 216H226.428C227.479 216 228.33 216.852 228.33 217.902C228.33 218.952 227.479 219.804 226.428 219.804H175.902C174.852 219.804 174 218.952 174 217.902Z" fill="#636A77"/>
<path opacity="0.4" fill-rule="evenodd" clip-rule="evenodd" d="M174 224.837C174 223.786 174.852 222.935 175.902 222.935H212.112C213.162 222.935 214.014 223.786 214.014 224.837C214.014 225.887 213.162 226.739 212.112 226.739H175.902C174.852 226.739 174 225.887 174 224.837Z" fill="#636A77"/>
<path opacity="0.25" fill-rule="evenodd" clip-rule="evenodd" d="M174 236.102C174 235.052 174.852 234.2 175.902 234.2H187.635C188.685 234.2 189.537 235.052 189.537 236.102C189.537 237.153 188.685 238.004 187.635 238.004H175.902C174.852 238.004 174 237.153 174 236.102Z" fill="#9A9FA8"/>
<path fill-rule="evenodd" clip-rule="evenodd" d="M156 238C162.075 238 167 233.075 167 227C167 220.925 162.075 216 156 216C149.925 216 145 220.925 145 227C145 233.075 149.925 238 156 238Z" fill="#D9DADD"/>
<g filter="url(#filter1_d)">
<path fill-rule="evenodd" clip-rule="evenodd" d="M153 129C153 124.582 156.582 121 161 121H272C276.418 121 280 124.582 280 129V149C280 153.418 276.418 157 272 157H161C156.582 157 153 153.418 153 149V129Z" fill="#FAFAFD"/>
</g>
<path opacity="0.4" fill-rule="evenodd" clip-rule="evenodd" d="M189 129.902C189 128.852 189.852 128 190.902 128H241.428C242.479 128 243.33 128.852 243.33 129.902C243.33 130.952 242.479 131.804 241.428 131.804H190.902C189.852 131.804 189 130.952 189 129.902Z" fill="#20BA68"/>
<path opacity="0.4" fill-rule="evenodd" clip-rule="evenodd" d="M189 136.837C189 135.786 189.852 134.935 190.902 134.935H227.112C228.162 134.935 229.014 135.786 229.014 136.837C229.014 137.887 228.162 138.739 227.112 138.739H190.902C189.852 138.739 189 137.887 189 136.837Z" fill="#20BA68"/>
<path opacity="0.25" fill-rule="evenodd" clip-rule="evenodd" d="M189 148.102C189 147.052 189.852 146.2 190.902 146.2H202.635C203.685 146.2 204.537 147.052 204.537 148.102C204.537 149.153 203.685 150.004 202.635 150.004H190.902C189.852 150.004 189 149.153 189 148.102Z" fill="#129453"/>
<path fill-rule="evenodd" clip-rule="evenodd" d="M171 150C177.075 150 182 145.075 182 139C182 132.925 177.075 128 171 128C164.925 128 160 132.925 160 139C160 145.075 164.925 150 171 150Z" fill="#42C77B"/>
<path d="M174.619 141.909H174.333V138.045C174.333 136.442 173.092 135.117 171.476 134.897V134.455C171.476 134.203 171.263 134 171 134C170.737 134 170.524 134.203 170.524 134.455V134.897C168.908 135.117 167.667 136.442 167.667 138.045V141.909H167.381C167.17 141.909 167 142.072 167 142.273V142.636C167 142.686 167.043 142.727 167.095 142.727H169.667C169.667 143.43 170.264 144 171 144C171.736 144 172.333 143.43 172.333 142.727H174.905C174.957 142.727 175 142.686 175 142.636V142.273C175 142.072 174.83 141.909 174.619 141.909ZM171 143.273C170.685 143.273 170.429 143.028 170.429 142.727H171.571C171.571 143.028 171.315 143.273 171 143.273ZM168.524 141.909V138.045C168.524 137.414 168.781 136.82 169.249 136.374C169.717 135.927 170.338 135.682 171 135.682C171.662 135.682 172.283 135.927 172.751 136.374C173.219 136.82 173.476 137.414 173.476 138.045V141.909H168.524Z" fill="#FAFAFD"/>
<path fill-rule="evenodd" clip-rule="evenodd" d="M146 173C146 168.582 149.582 165 154 165H265C269.418 165 273 168.582 273 173V193C273 197.418 269.418 201 265 201H154C149.582 201 146 197.418 146 193V173Z" fill="#EAEBEF"/>
<path opacity="0.4" fill-rule="evenodd" clip-rule="evenodd" d="M182 173.902C182 172.852 182.852 172 183.902 172H234.428C235.479 172 236.33 172.852 236.33 173.902C236.33 174.952 235.479 175.804 234.428 175.804H183.902C182.852 175.804 182 174.952 182 173.902Z" fill="#636A77"/>
<path opacity="0.4" fill-rule="evenodd" clip-rule="evenodd" d="M182 180.837C182 179.786 182.852 178.935 183.902 178.935H220.112C221.162 178.935 222.014 179.786 222.014 180.837C222.014 181.887 221.162 182.739 220.112 182.739H183.902C182.852 182.739 182 181.887 182 180.837Z" fill="#636A77"/>
<path opacity="0.25" fill-rule="evenodd" clip-rule="evenodd" d="M182 192.102C182 191.052 182.852 190.2 183.902 190.2H195.635C196.685 190.2 197.537 191.052 197.537 192.102C197.537 193.153 196.685 194.004 195.635 194.004H183.902C182.852 194.004 182 193.153 182 192.102Z" fill="#9A9FA8"/>
<path fill-rule="evenodd" clip-rule="evenodd" d="M164 194C170.075 194 175 189.075 175 183C175 176.925 170.075 172 164 172C157.925 172 153 176.925 153 183C153 189.075 157.925 194 164 194Z" fill="#D9DADD"/>
<defs>
<filter id="filter0_f" x="0.451546" y="0.451546" width="363.097" height="363.097" filterUnits="userSpaceOnUse" color-interpolation-filters="sRGB">
<feFlood flood-opacity="0" result="BackgroundImageFix"/>
<feBlend mode="normal" in="SourceGraphic" in2="BackgroundImageFix" result="shape"/>
<feGaussianBlur stdDeviation="40.7742" result="effect1_foregroundBlur"/>
</filter>
<filter id="filter1_d" x="118" y="98" width="197" height="106" filterUnits="userSpaceOnUse" color-interpolation-filters="sRGB">
<feFlood flood-opacity="0" result="BackgroundImageFix"/>
<feColorMatrix in="SourceAlpha" type="matrix" values="0 0 0 0 0 0 0 0 0 0 0 0 0 0 0 0 0 0 127 0"/>
<feOffset dy="12"/>
<feGaussianBlur stdDeviation="17.5"/>
<feColorMatrix type="matrix" values="0 0 0 0 0.226735 0 0 0 0 0.437054 0 0 0 0 0.687819 0 0 0 0.189057 0"/>
<feBlend mode="normal" in2="BackgroundImageFix" result="effect1_dropShadow"/>
<feBlend mode="normal" in="SourceGraphic" in2="effect1_dropShadow" result="shape"/>
</filter>
</defs>
</svg>
