<svg width="364" height="364" viewBox="0 0 364 364" fill="none" xmlns="http://www.w3.org/2000/svg">
<g opacity="0.05" filter="url(#filter0_f)">
<path fill-rule="evenodd" clip-rule="evenodd" d="M182 282C237.228 282 282 237.228 282 182C282 126.772 237.228 82 182 82C126.772 82 82 126.772 82 182C82 237.228 126.772 282 182 282Z" fill="#1F2735"/>
</g>
<g clip-path="url(#clip0)">
<path d="M226.829 103.598L86.3266 147.352C83.1587 148.339 81.3859 151.703 82.3668 154.867L107.555 236.107C108.536 239.271 111.899 241.036 115.067 240.049L255.569 196.295C258.737 195.308 260.51 191.944 259.529 188.78L234.341 107.54C233.36 104.377 229.997 102.612 226.829 103.598Z" fill="url(#paint0_linear)"/>
<path d="M225.227 105.289L87.8251 148.078C84.6572 149.065 82.8806 152.417 83.857 155.566L107.915 233.163C108.892 236.312 112.251 238.065 115.419 237.078L252.821 194.29C255.989 193.303 257.765 189.951 256.789 186.801L232.731 109.205C231.754 106.056 228.395 104.303 225.227 105.289Z" fill="#E5E6E9"/>
<path d="M234.403 114.599L85.5293 160.96L89.519 173.828L238.393 127.467L234.403 114.599Z" fill="#367FD3"/>
<path d="M153.222 207.312L119.216 217.902C118.161 218.231 117.571 219.352 117.898 220.407L118.439 222.151C118.766 223.206 119.886 223.795 120.941 223.467L154.948 212.877C156.002 212.549 156.592 211.427 156.265 210.372L155.724 208.628C155.397 207.573 154.277 206.984 153.222 207.312Z" fill="#DFE0E3"/>
<path d="M178.073 189.276L116.304 208.512C115.25 208.84 114.66 209.962 114.987 211.017L115.528 212.761C115.855 213.816 116.975 214.405 118.029 214.076L179.798 194.841C180.853 194.512 181.442 193.391 181.115 192.336L180.575 190.592C180.247 189.537 179.127 188.948 178.073 189.276Z" fill="#A9ADB3"/>
<path d="M275.995 153H127.005C123.689 153 121 155.709 121 159.05V244.95C121 248.291 123.689 251 127.005 251H275.995C279.311 251 282 248.291 282 244.95V159.05C282 155.709 279.311 153 275.995 153Z" fill="url(#paint1_linear)"/>
<path d="M276 155H127C124.791 155 123 156.791 123 159V245C123 247.209 124.791 249 127 249H276C278.209 249 280 247.209 280 245V159C280 156.791 278.209 155 276 155Z" fill="#FAFAFD"/>
<path d="M137 203H136C134.895 203 134 203.895 134 205V209C134 210.105 134.895 211 136 211H137C138.105 211 139 210.105 139 209V205C139 203.895 138.105 203 137 203Z" fill="#5E9FE0"/>
<path d="M145 203H144C142.895 203 142 203.895 142 205V209C142 210.105 142.895 211 144 211H145C146.105 211 147 210.105 147 209V205C147 203.895 146.105 203 145 203Z" fill="#5E9FE0"/>
<path d="M153 203H152C150.895 203 150 203.895 150 205V209C150 210.105 150.895 211 152 211H153C154.105 211 155 210.105 155 209V205C155 203.895 154.105 203 153 203Z" fill="#5E9FE0"/>
<path d="M175 203H174C172.895 203 172 203.895 172 205V209C172 210.105 172.895 211 174 211H175C176.105 211 177 210.105 177 209V205C177 203.895 176.105 203 175 203Z" fill="#5E9FE0"/>
<path d="M183 203H182C180.895 203 180 203.895 180 205V209C180 210.105 180.895 211 182 211H183C184.105 211 185 210.105 185 209V205C185 203.895 184.105 203 183 203Z" fill="#5E9FE0"/>
<path d="M191 203H190C188.895 203 188 203.895 188 205V209C188 210.105 188.895 211 190 211H191C192.105 211 193 210.105 193 209V205C193 203.895 192.105 203 191 203Z" fill="#5E9FE0"/>
<path d="M213 203H212C210.895 203 210 203.895 210 205V209C210 210.105 210.895 211 212 211H213C214.105 211 215 210.105 215 209V205C215 203.895 214.105 203 213 203Z" fill="#5E9FE0"/>
<path d="M221 203H220C218.895 203 218 203.895 218 205V209C218 210.105 218.895 211 220 211H221C222.105 211 223 210.105 223 209V205C223 203.895 222.105 203 221 203Z" fill="#5E9FE0"/>
<path d="M229 203H228C226.895 203 226 203.895 226 205V209C226 210.105 226.895 211 228 211H229C230.105 211 231 210.105 231 209V205C231 203.895 230.105 203 229 203Z" fill="#5E9FE0"/>
<path d="M251 203H250C248.895 203 248 203.895 248 205V209C248 210.105 248.895 211 250 211H251C252.105 211 253 210.105 253 209V205C253 203.895 252.105 203 251 203Z" fill="#5E9FE0"/>
<path d="M259 203H258C256.895 203 256 203.895 256 205V209C256 210.105 256.895 211 258 211H259C260.105 211 261 210.105 261 209V205C261 203.895 260.105 203 259 203Z" fill="#5E9FE0"/>
<path d="M267 203H266C264.895 203 264 203.895 264 205V209C264 210.105 264.895 211 266 211H267C268.105 211 269 210.105 269 209V205C269 203.895 268.105 203 267 203Z" fill="#5E9FE0"/>
<path d="M158 166H138C135.791 166 134 167.791 134 170V177C134 179.209 135.791 181 138 181H158C160.209 181 162 179.209 162 177V170C162 167.791 160.209 166 158 166Z" fill="#5E9FE0"/>
<path opacity="0.5" d="M253.5 223H252.5C248.358 223 245 226.358 245 230.5C245 234.642 248.358 238 252.5 238H253.5C257.642 238 261 234.642 261 230.5C261 226.358 257.642 223 253.5 223Z" fill="#EDA56E"/>
<path opacity="0.5" d="M261.5 223H260.5C256.358 223 253 226.358 253 230.5C253 234.642 256.358 238 260.5 238H261.5C265.642 238 269 234.642 269 230.5C269 226.358 265.642 223 261.5 223Z" fill="#EDA56E"/>
<path opacity="0.5" d="M152.926 223H138.075C135.824 223 134 224.817 134 227.059V233.941C134 236.183 135.824 238 138.075 238H152.926C155.176 238 157 236.183 157 233.941V227.059C157 224.817 155.176 223 152.926 223Z" fill="#42C77B"/>
</g>
<defs>
<filter id="filter0_f" x="0.451546" y="0.451546" width="363.097" height="363.097" filterUnits="userSpaceOnUse" color-interpolation-filters="sRGB">
<feFlood flood-opacity="0" result="BackgroundImageFix"/>
<feBlend mode="normal" in="SourceGraphic" in2="BackgroundImageFix" result="shape"/>
<feGaussianBlur stdDeviation="40.7742" result="effect1_foregroundBlur"/>
</filter>
<linearGradient id="paint0_linear" x1="111.503" y1="238.509" x2="232.871" y2="102.011" gradientUnits="userSpaceOnUse">
<stop stop-color="#D9DADD" stop-opacity="0.38"/>
<stop offset="0.53514" stop-color="#808080" stop-opacity="0.12"/>
<stop offset="1" stop-color="#F2F2F4" stop-opacity="0.63"/>
</linearGradient>
<linearGradient id="paint1_linear" x1="88012.6" y1="66722.1" x2="88012.6" y2="23068.9" gradientUnits="userSpaceOnUse">
<stop stop-color="#A9ADB3" stop-opacity="0.3"/>
<stop offset="0.53514" stop-color="#E5E6E9" stop-opacity="0.67"/>
<stop offset="1" stop-color="#D9DADD" stop-opacity="0.34"/>
</linearGradient>
<clipPath id="clip0">
<rect x="82" y="103" width="200" height="148.691" fill="white"/>
</clipPath>
</defs>
</svg>
