<svg width="45" height="44" viewBox="0 0 45 44" fill="none" xmlns="http://www.w3.org/2000/svg">
<path d="M12.0451 2.09302H11.3828C8.87423 2.09302 6.82227 4.09916 6.82227 6.5502V37.9587C6.82227 40.4106 8.87423 42.4159 11.3828 42.4159H34.1177C36.6262 42.4159 38.6782 40.4098 38.6782 37.9587V12.4278C34.5659 8.40888 32.2165 6.11198 28.1042 2.09302H18.311" fill="#EDF7F5"/>
<path d="M34.1179 43.0001H11.3829C8.54699 43.0001 6.23926 40.739 6.23926 37.9597V6.55037C6.23926 3.77109 8.54699 1.51001 11.3829 1.51001H12.0444C12.3668 1.51001 12.6276 1.77077 12.6276 2.09319C12.6276 2.41561 12.3668 2.67637 12.0444 2.67637H11.3829C9.19016 2.67637 7.40645 4.41342 7.40645 6.54954V37.9589C7.40645 40.095 9.19016 41.8329 11.3829 41.8329H34.1179C36.3106 41.8329 38.0943 40.095 38.0943 37.9589V12.6729L27.867 2.67637H18.312C17.9895 2.67637 17.7288 2.41561 17.7288 2.09319C17.7288 1.77077 17.9895 1.51001 18.312 1.51001H28.1044C28.2569 1.51001 28.4027 1.56999 28.5118 1.67663L39.0849 12.0115C39.1974 12.1214 39.2607 12.2714 39.2607 12.428V37.9597C39.2615 40.7382 36.9538 43.0001 34.1179 43.0001Z" fill="#472B29"/>
<path d="M27.9727 2.3479V7.95478C27.9727 10.4858 29.9688 12.5561 32.409 12.5561H38.3075" fill="#85CFCC"/>
<path d="M38.3078 12.8694H32.4093C29.7909 12.8694 27.6606 10.665 27.6606 7.95568V2.3488C27.6606 2.17634 27.8005 2.03638 27.973 2.03638C28.1454 2.03638 28.2854 2.17634 28.2854 2.3488V7.95568C28.2854 10.3201 30.1358 12.2446 32.4093 12.2446H38.3087C38.4811 12.2446 38.6211 12.3845 38.6211 12.557C38.6211 12.7294 38.4811 12.8694 38.3078 12.8694ZM35.806 22.0562C35.6335 22.0562 35.4935 21.9162 35.4935 21.7438V20.2125C35.4935 20.04 35.6335 19.9001 35.806 19.9001C35.9784 19.9001 36.1184 20.04 36.1184 20.2125V21.7438C36.1184 21.9162 35.9784 22.0562 35.806 22.0562ZM35.806 26.1401C35.6335 26.1401 35.4935 26.0002 35.4935 25.8277V22.7643C35.4935 22.5919 35.6335 22.4519 35.806 22.4519C35.9784 22.4519 36.1184 22.5919 36.1184 22.7643V25.8269C36.1184 26.0002 35.9784 26.1401 35.806 26.1401ZM32.0678 39.9216H13.4334C11.1998 39.9216 9.38281 38.1354 9.38281 35.9393V9.05872C9.38281 7.7374 10.0526 6.50272 11.174 5.75791C11.3173 5.66294 11.5114 5.70126 11.6072 5.84539C11.7022 5.98868 11.6631 6.1828 11.5198 6.27861C10.5725 6.90761 10.0077 7.94734 10.0077 9.05872V35.9393C10.0077 37.7904 11.5448 39.2967 13.4334 39.2967H32.0678C33.9564 39.2967 35.4935 37.7904 35.4935 35.9393V26.8483C35.4935 26.6758 35.6335 26.5359 35.806 26.5359C35.9784 26.5359 36.1184 26.6758 36.1184 26.8483V35.9393C36.1184 38.1354 34.3014 39.9216 32.0678 39.9216Z" fill="#472B29"/>
<path d="M17.5919 3.11362L17.5444 9.01542C17.5444 10.1435 16.5396 11.0249 15.5207 11.0249C14.5018 11.0249 13.4138 10.1268 13.4138 8.99876L13.4296 2.75788C13.4296 2.09138 14.1769 1.48904 14.8009 1.48904C15.4249 1.48904 16.0256 2.07556 16.0256 2.74205V8.08816C16.0256 8.08816 15.7765 8.59886 15.5116 8.59886C15.2466 8.59886 14.9142 8.41724 14.9809 8.13648V3.11195H14.4585L14.441 8.04068C14.441 8.74466 14.8276 9.06124 15.5241 9.06124C16.2205 9.06124 16.5471 8.69717 16.5471 7.99236V2.7862C16.5471 1.62734 15.8365 1 14.7526 1C13.6687 1 12.8914 1.644 12.8914 2.80287L12.9081 8.98376C12.9081 10.535 14.017 11.4881 15.5024 11.4881C16.9878 11.4881 18.1134 10.615 18.1134 9.06374V3.11445H17.5919V3.11362ZM24.3176 22.5669H12.3066C12.1341 22.5669 11.9941 22.4269 11.9941 22.2545C11.9941 22.082 12.1341 21.9421 12.3066 21.9421H24.3176C24.4901 21.9421 24.63 22.082 24.63 22.2545C24.63 22.4269 24.4901 22.5669 24.3176 22.5669ZM19.6172 26.1402H12.3066C12.1341 26.1402 11.9941 26.0002 11.9941 25.8277C11.9941 25.6553 12.1341 25.5153 12.3066 25.5153H19.6172C19.7896 25.5153 19.9296 25.6553 19.9296 25.8277C19.9296 26.0002 19.7896 26.1402 19.6172 26.1402ZM33.1953 26.1402H20.6619C20.4894 26.1402 20.3495 26.0002 20.3495 25.8277C20.3495 25.6553 20.4894 25.5153 20.6619 25.5153H33.1945C33.3669 25.5153 33.5069 25.6553 33.5069 25.8277C33.5069 26.0002 33.3678 26.1402 33.1953 26.1402Z" fill="#472B29"/>
<path d="M28.4949 29.7127H22.7505C22.5781 29.7127 22.4381 29.5728 22.4381 29.4003C22.4381 29.2279 22.5781 29.0879 22.7505 29.0879H28.4949C28.6673 29.0879 28.8073 29.2279 28.8073 29.4003C28.8073 29.5728 28.6673 29.7127 28.4949 29.7127ZM33.7177 29.7127H29.5396C29.3671 29.7127 29.2272 29.5728 29.2272 29.4003C29.2272 29.2279 29.3671 29.0879 29.5396 29.0879H33.7177C33.8901 29.0879 34.0301 29.2279 34.0301 29.4003C34.0301 29.5728 33.8901 29.7127 33.7177 29.7127ZM21.7066 29.7127H12.3066C12.1341 29.7127 11.9941 29.5728 11.9941 29.4003C11.9941 29.2279 12.1341 29.0879 12.3066 29.0879H21.7066C21.8791 29.0879 22.019 29.2279 22.019 29.4003C22.019 29.5728 21.8791 29.7127 21.7066 29.7127Z" fill="#472B29"/>
<path d="M33.1953 33.2857H26.4071C26.2346 33.2857 26.0947 33.1458 26.0947 32.9733C26.0947 32.8009 26.2346 32.6609 26.4071 32.6609H33.1953C33.3678 32.6609 33.5077 32.8009 33.5077 32.9733C33.5077 33.1458 33.3678 33.2857 33.1953 33.2857ZM24.8391 33.2857H12.3066C12.1341 33.2857 11.9941 33.1458 11.9941 32.9733C11.9941 32.8009 12.1341 32.6609 12.3066 32.6609H24.8391C25.0116 32.6609 25.1516 32.8009 25.1516 32.9733C25.1516 33.1458 25.0124 33.2857 24.8391 33.2857Z" fill="#472B29"/>
<path d="M25.7097 32.3987C25.6426 32.3987 25.5754 32.373 25.524 32.3221C25.4217 32.2197 25.4217 32.0534 25.524 31.9511L26.9853 30.4898C27.0876 30.3875 27.2539 30.3875 27.3562 30.4898C27.4586 30.5921 27.4586 30.7585 27.3562 30.8608L25.895 32.3221C25.8441 32.373 25.7769 32.3987 25.7097 32.3987Z" fill="#472B29"/>
<path d="M19.4812 38.4334L19.4124 38.3647C18.8573 37.8095 18.8573 36.9008 19.4124 36.3456L23.6562 32.1019C24.2113 31.5468 25.1201 31.5468 25.6752 32.1019L25.7439 32.1706C26.2991 32.7258 26.2991 33.6345 25.7439 34.1897L21.5002 38.4334C20.9451 38.9885 20.0363 38.9885 19.4812 38.4334Z" fill="#88AE45"/>
<path d="M20.491 39.1115C20.0387 39.1115 19.6142 38.9368 19.2963 38.6183L19.228 38.5496C18.9101 38.2321 18.7354 37.8071 18.7354 37.3549C18.7354 36.9026 18.9101 36.4781 19.2286 36.1601L23.4718 31.9164C24.1308 31.2574 25.2027 31.2574 25.8618 31.9164L25.93 31.9846C26.2485 32.3026 26.4232 32.7276 26.4232 33.1799C26.4232 33.6327 26.2485 34.0571 25.93 34.3751L21.6862 38.6188C21.3683 38.9368 20.9438 39.1115 20.491 39.1115ZM19.6677 38.2479C20.1226 38.7017 20.8614 38.7023 21.3158 38.2479L25.5595 34.0041C26.0139 33.5498 26.0139 32.8105 25.5595 32.3561L25.4913 32.2879C25.0369 31.8335 24.2976 31.833 23.8427 32.2879L19.5995 36.5316C19.1451 36.986 19.1451 37.7253 19.5995 38.1797L19.6677 38.2479Z" fill="#472B29"/>
<path d="M25.5551 32.2858C25.0708 31.8015 24.3095 31.7695 23.864 32.2149L23.7832 32.2958L23.9595 32.472L25.5451 34.0577L25.6259 33.9769C26.0714 33.5314 26.0399 32.7701 25.5551 32.2858Z" fill="#D1DC82"/>
<path d="M25.5471 34.4665C25.4967 34.4665 25.4464 34.4471 25.4081 34.4088L23.5291 32.5299C23.4525 32.4533 23.4525 32.3284 23.5291 32.2518C23.6057 32.1752 23.7306 32.1752 23.8072 32.2518L25.6862 34.1307C25.7628 34.2073 25.7628 34.3322 25.6862 34.4088C25.6479 34.4476 25.5975 34.4665 25.5471 34.4665Z" fill="#472B29"/>
<path opacity="0.74" d="M31.777 20.9021C30.4067 20.9021 29.0926 21.4464 28.1236 22.4154C27.1547 23.3843 26.6104 24.6985 26.6104 26.0688C26.6104 27.4391 27.1547 28.7532 28.1236 29.7222C29.0926 30.6911 30.4067 31.2355 31.777 31.2355C33.1473 31.2355 34.4615 30.6911 35.4304 29.7222C36.3994 28.7532 36.9437 27.4391 36.9437 26.0688C36.9437 24.6985 36.3994 23.3843 35.4304 22.4154C34.4615 21.4464 33.1473 20.9021 31.777 20.9021Z" fill="#77CBD2"/>
<path d="M36.3571 21.4897C33.8208 18.9533 29.7082 18.9533 27.1718 21.4897C24.6354 24.0261 24.6354 28.1386 27.1718 30.675C29.7082 33.2114 33.8208 33.2114 36.3571 30.675C38.8935 28.1386 38.8935 24.0261 36.3571 21.4897ZM35.4179 29.7353C33.4005 31.7527 30.129 31.7527 28.1115 29.7353C26.0941 27.7178 26.0941 24.4463 28.1115 22.4289C30.129 20.4114 33.4005 20.4114 35.4179 22.4289C37.4354 24.4469 37.4354 27.7178 35.4179 29.7353Z" fill="#FDFCEF"/>
<path d="M31.7635 32.8362C30.0331 32.8362 28.3026 32.1778 26.9856 30.8602C25.709 29.5842 25.0065 27.8868 25.0065 26.0824C25.0065 24.2779 25.7096 22.5805 26.9856 21.3045C29.6201 18.67 33.9069 18.67 36.5419 21.3045C39.1764 23.939 39.1764 28.2257 36.5419 30.8608C35.2249 32.1778 33.494 32.8362 31.7635 32.8362ZM31.7635 19.8527C30.1674 19.8527 28.5713 20.4603 27.3566 21.6749C26.1792 22.8523 25.5312 24.4175 25.5312 26.0818C25.5312 27.7462 26.1797 29.3119 27.3566 30.4888C29.7859 32.9181 33.7406 32.9186 36.1709 30.4888C38.6008 28.0589 38.6008 24.1048 36.1709 21.6744C34.9558 20.4603 33.3596 19.8527 31.7635 19.8527ZM31.7635 31.5088C30.3731 31.5088 28.9831 30.9794 27.9248 29.921C25.8082 27.8044 25.8082 24.3603 27.9248 22.2437C30.0415 20.1271 33.4856 20.1265 35.6022 22.2437C37.7188 24.3603 37.7188 27.8049 35.6022 29.921C34.5439 30.9794 33.1539 31.5088 31.7635 31.5088ZM31.7635 21.1801C30.5074 21.1801 29.2518 21.6581 28.2958 22.6141C26.3838 24.5266 26.3838 27.6376 28.2958 29.5496C30.2083 31.4621 33.3192 31.4615 35.2312 29.5496C37.1432 27.6376 37.1432 24.5261 35.2312 22.6141C34.2752 21.6587 33.0191 21.1801 31.7635 21.1801ZM20.1646 38.876C20.1368 38.876 20.1111 38.8582 20.1021 38.8304L19.3791 36.5847C19.3681 36.5506 19.387 36.5133 19.4216 36.5023C19.4557 36.4918 19.493 36.5102 19.504 36.5448L20.227 38.7905C20.238 38.8246 20.2192 38.8619 20.1845 38.8729C20.1777 38.875 20.1714 38.876 20.1646 38.876ZM20.6221 38.7197C20.5938 38.7197 20.5676 38.7013 20.5592 38.673L19.7401 35.9215C19.7296 35.8868 19.7496 35.8501 19.7842 35.8401C19.8199 35.8296 19.8555 35.8501 19.8655 35.8842L20.6846 38.6357C20.6951 38.6703 20.6751 38.7071 20.6405 38.717C20.6347 38.7191 20.6284 38.7197 20.6221 38.7197Z" fill="#472B29"/>
<path d="M20.898 37.7529C20.8697 37.7529 20.8435 37.7346 20.8351 37.7063L20.1493 35.4034C20.1388 35.3687 20.1587 35.332 20.1934 35.322C20.2285 35.3105 20.2647 35.3315 20.2747 35.3661L20.9605 37.669C20.971 37.7036 20.951 37.7404 20.9164 37.7503C20.9106 37.7519 20.9043 37.7529 20.898 37.7529Z" fill="#472B29"/>
<path d="M21.1779 36.743C21.1496 36.743 21.1233 36.7246 21.115 36.6963L20.6317 35.0729C20.6212 35.0383 20.6412 35.0015 20.6758 34.9916C20.7099 34.9811 20.7471 35.001 20.7571 35.0356L21.2404 36.6591C21.2508 36.6937 21.2309 36.7304 21.1963 36.7404C21.1905 36.7425 21.1842 36.743 21.1779 36.743Z" fill="#472B29"/>
</svg>
