<svg width="45" height="44" viewBox="0 0 45 44" fill="none" xmlns="http://www.w3.org/2000/svg">
<path d="M41.3269 6.65381H4.173C3.28212 6.65381 2.55762 7.37831 2.55762 8.26919V35.7307C2.55842 36.6208 3.28292 37.3461 4.173 37.3461H7.40377V36.5384C7.40377 36.0926 7.76562 35.7307 8.21146 35.7307H11.4422C11.8881 35.7307 12.2499 36.0926 12.2499 36.5384V37.3461H34.0568L34.0576 36.5384C34.0576 36.0926 34.4195 35.7307 34.8653 35.7307H38.0961C38.5419 35.7307 38.9038 36.0926 38.9038 36.5384V37.3461H41.3269C41.7582 37.3461 42.1636 37.1781 42.4689 36.8728C42.7742 36.5675 42.9422 36.162 42.9422 35.7307V13.923V8.26919C42.9422 7.37831 42.2177 6.65381 41.3269 6.65381Z" fill="#FDFCEF"/>
<path d="M41.3269 5.84619C41.3269 5.84619 25.7037 5.84619 24.3654 5.84619H4.17308C2.83473 5.84619 1.75 6.93092 1.75 8.26927V35.7308C1.75081 37.0683 2.83554 38.1539 4.17308 38.1539L7.40304 38.1531C7.40304 38.1531 7.40304 38.1531 7.40385 38.1531C7.84969 38.1531 8.21154 37.7912 8.21154 37.3454V36.5385H11.4423V37.3462C11.4423 37.792 11.8042 38.1539 12.25 38.1539H34.0569C34.0569 38.1539 34.0569 38.1539 34.0577 38.1539C34.5035 38.1539 34.8654 37.792 34.8654 37.3462V36.5385H38.0962V37.3462C38.0962 37.792 38.458 38.1539 38.9038 38.1539H41.3269C42.6653 38.1539 43.75 37.0692 43.75 35.7308V13.9231V8.26927C43.75 6.93092 42.6653 5.84619 41.3269 5.84619ZM42.6192 13.9231V35.7308C42.6192 36.0757 42.4851 36.4004 42.2404 36.6443C41.9965 36.8882 41.6718 37.0231 41.3269 37.0231H39.2269V36.5385C39.2269 35.9142 38.7205 35.4077 38.0962 35.4077H34.8654C34.241 35.4077 33.7346 35.9142 33.7346 36.5385V37.0223H14.7894H12.5731V36.5385C12.5731 35.9142 12.0667 35.4077 11.4423 35.4077H8.21154C7.58719 35.4077 7.08077 35.9142 7.08077 36.5385V37.0223L4.17308 37.0231C3.4615 37.0231 2.88158 36.4432 2.88077 35.7308V8.26927C2.88077 7.55688 3.46069 6.97696 4.17308 6.97696H41.3269C42.0393 6.97696 42.6192 7.55688 42.6192 8.26927V13.9231Z" fill="#472B29"/>
<path d="M25.1732 27.8557C25.5075 27.8557 25.7789 28.1271 25.7789 28.4615V30.0769C25.7789 30.4113 25.5075 30.6826 25.1732 30.6826C24.8388 30.6826 24.5674 30.4113 24.5674 30.0769V28.4615C24.5674 28.1271 24.8388 27.8557 25.1732 27.8557ZM28.4039 27.8557C28.7383 27.8557 29.0097 28.1271 29.0097 28.4615V30.0769C29.0097 30.4113 28.7383 30.6826 28.4039 30.6826C28.0695 30.6826 27.7982 30.4113 27.7982 30.0769V28.4615C27.7982 28.1271 28.0695 27.8557 28.4039 27.8557ZM31.6347 27.8557C31.9691 27.8557 32.2405 28.1271 32.2405 28.4615V30.0769C32.2405 30.4113 31.9691 30.6826 31.6347 30.6826C31.3003 30.6826 31.0289 30.4113 31.0289 30.0769V28.4615C31.0289 28.1271 31.3003 27.8557 31.6347 27.8557ZM34.8655 27.8557C35.1998 27.8557 35.4712 28.1271 35.4712 28.4615V30.0769C35.4712 30.4113 35.1998 30.6826 34.8655 30.6826C34.5311 30.6826 34.2597 30.4113 34.2597 30.0769V28.4615C34.2597 28.1271 34.5311 27.8557 34.8655 27.8557ZM38.0962 27.8557C38.4306 27.8557 38.702 28.1271 38.702 28.4615V30.0769C38.702 30.4113 38.4306 30.6826 38.0962 30.6826C37.7618 30.6826 37.4905 30.4113 37.4905 30.0769V28.4615C37.4905 28.1271 37.7618 27.8557 38.0962 27.8557Z" fill="#E1E0D8"/>
<path d="M25.1729 28.0577C25.3958 28.0577 25.5768 28.2386 25.5768 28.4615V30.0769C25.5768 30.2998 25.3958 30.4807 25.1729 30.4807C24.95 30.4807 24.7691 30.2998 24.7691 30.0769V28.4615C24.7691 28.2386 24.95 28.0577 25.1729 28.0577ZM25.1729 27.6538C24.7271 27.6538 24.3652 28.0157 24.3652 28.4615C24.3652 28.741 24.3652 29.7934 24.3652 30.0769C24.3652 30.5227 24.7271 30.8846 25.1729 30.8846C25.6188 30.8846 25.9806 30.5227 25.9806 30.0769C25.9806 29.7934 25.9806 28.741 25.9806 28.4615C25.9806 28.0157 25.6188 27.6538 25.1729 27.6538ZM28.4037 28.0577C28.6266 28.0577 28.8075 28.2386 28.8075 28.4615V30.0769C28.8075 30.2998 28.6266 30.4807 28.4037 30.4807C28.1808 30.4807 27.9998 30.2998 27.9998 30.0769V28.4615C27.9998 28.2386 28.1808 28.0577 28.4037 28.0577ZM28.4037 27.6538C27.9578 27.6538 27.596 28.0157 27.596 28.4615C27.596 28.741 27.596 29.7934 27.596 30.0769C27.596 30.5227 27.9578 30.8846 28.4037 30.8846C28.8495 30.8846 29.2114 30.5227 29.2114 30.0769C29.2114 29.7934 29.2114 28.741 29.2114 28.4615C29.2114 28.0157 28.8495 27.6538 28.4037 27.6538ZM31.6345 28.0577C31.8574 28.0577 32.0383 28.2386 32.0383 28.4615V30.0769C32.0383 30.2998 31.8574 30.4807 31.6345 30.4807C31.4115 30.4807 31.2306 30.2998 31.2306 30.0769V28.4615C31.2306 28.2386 31.4115 28.0577 31.6345 28.0577ZM31.6345 27.6538C31.1886 27.6538 30.8268 28.0157 30.8268 28.4615C30.8268 28.741 30.8268 29.7934 30.8268 30.0769C30.8268 30.5227 31.1886 30.8846 31.6345 30.8846C32.0803 30.8846 32.4422 30.5227 32.4422 30.0769C32.4422 29.7934 32.4422 28.741 32.4422 28.4615C32.4422 28.0157 32.0803 27.6538 31.6345 27.6538ZM34.8652 28.0577C35.0882 28.0577 35.2691 28.2386 35.2691 28.4615V30.0769C35.2691 30.2998 35.0882 30.4807 34.8652 30.4807C34.6423 30.4807 34.4614 30.2998 34.4614 30.0769V28.4615C34.4614 28.2386 34.6423 28.0577 34.8652 28.0577ZM34.8652 27.6538C34.4194 27.6538 34.0575 28.0157 34.0575 28.4615C34.0575 28.741 34.0575 29.7934 34.0575 30.0769C34.0575 30.5227 34.4194 30.8846 34.8652 30.8846C35.3111 30.8846 35.6729 30.5227 35.6729 30.0769C35.6729 29.7934 35.6729 28.741 35.6729 28.4615C35.6729 28.0157 35.3111 27.6538 34.8652 27.6538ZM38.096 28.0577C38.3189 28.0577 38.4998 28.2386 38.4998 28.4615V30.0769C38.4998 30.2998 38.3189 30.4807 38.096 30.4807C37.8731 30.4807 37.6922 30.2998 37.6922 30.0769V28.4615C37.6922 28.2386 37.8731 28.0577 38.096 28.0577ZM38.096 27.6538C37.6502 27.6538 37.2883 28.0157 37.2883 28.4615C37.2883 28.741 37.2883 29.7934 37.2883 30.0769C37.2883 30.5227 37.6502 30.8846 38.096 30.8846C38.5418 30.8846 38.9037 30.5227 38.9037 30.0769C38.9037 29.7934 38.9037 28.741 38.9037 28.4615C38.9037 28.0157 38.5418 27.6538 38.096 27.6538Z" fill="#472B29"/>
<path d="M7 12.7117H20.7308V30.4809H7V12.7117Z" fill="#F1D2CD"/>
<path d="M18.0196 20.0997C17.9849 19.9689 17.8896 19.8687 17.7838 19.8065C17.7741 19.8009 17.7636 19.796 17.7531 19.7912C17.7563 19.7823 17.7596 19.7734 17.762 19.7637C17.7983 19.6822 17.8153 19.5949 17.8121 19.502V19.452C17.8113 19.3252 17.7814 19.2072 17.7232 19.0982C17.6909 19.053 17.6586 19.0077 17.6263 18.9625C17.6425 18.9463 17.6586 18.9286 17.6731 18.91C17.7313 18.8454 17.7709 18.7703 17.7927 18.6847C17.8266 18.6047 17.8411 18.5199 17.8363 18.4302V18.3802C17.8331 18.2574 17.8024 18.1435 17.745 18.0393C17.7103 17.9925 17.6756 17.9448 17.6408 17.898C17.6166 17.8729 17.5908 17.8519 17.5641 17.8317C17.5803 17.8188 17.5964 17.8059 17.6126 17.793C17.7119 17.6977 17.7596 17.5523 17.7701 17.4109C17.7757 17.335 17.7644 17.2639 17.7353 17.1969C17.7176 17.1234 17.6836 17.0596 17.6336 17.0047C17.5891 16.9489 17.5358 16.9085 17.4745 16.8835C17.4179 16.848 17.3557 16.8302 17.2895 16.8294H17.2443C17.2394 16.8294 17.2354 16.8302 17.2305 16.8294C17.2943 16.6913 17.3258 16.5362 17.3121 16.3932C17.2717 15.9862 16.9737 15.7576 16.6361 15.7261C16.6385 15.7043 16.6417 15.6833 16.6425 15.6607C16.6619 15.2334 16.3405 14.798 15.9398 14.798C15.8332 14.798 15.7298 14.8206 15.6353 14.8626C15.5505 14.5517 15.2767 14.374 14.9811 14.374C14.8898 14.374 14.805 14.4039 14.7299 14.4531C14.7283 14.4507 14.7283 14.4475 14.7267 14.4451C14.7008 14.4039 14.675 14.3627 14.6491 14.3223C14.5619 14.206 14.4262 14.1495 14.2946 14.1341C14.2219 14.1268 14.154 14.139 14.0894 14.1721C14.0224 14.1915 13.9634 14.2286 13.9125 14.2835C13.877 14.3167 13.8479 14.3554 13.8261 14.3982C13.8035 14.3554 13.7752 14.3167 13.7397 14.2835C13.6888 14.2286 13.6298 14.1915 13.5628 14.1721C13.4982 14.139 13.4295 14.1268 13.3576 14.1341C13.226 14.1495 13.0903 14.206 13.0031 14.3223C12.9772 14.3635 12.9514 14.4047 12.9255 14.4451C12.9239 14.4475 12.9231 14.4507 12.9223 14.4531C12.8472 14.4039 12.7624 14.374 12.6711 14.374C12.3755 14.374 12.1025 14.5517 12.0169 14.8626C11.9224 14.8215 11.819 14.798 11.7124 14.798C11.3118 14.798 10.9903 15.2334 11.0097 15.6607C11.0105 15.6833 11.0137 15.7043 11.0161 15.7261C10.6785 15.7576 10.3813 15.9862 10.3401 16.3932C10.3256 16.5354 10.3571 16.6913 10.4217 16.8294C10.4168 16.8294 10.4128 16.8286 10.408 16.8294H10.3627C10.2965 16.8302 10.2343 16.848 10.1778 16.8835C10.1156 16.9077 10.0631 16.9481 10.0186 17.0047C9.96857 17.0596 9.93545 17.1234 9.91688 17.1969C9.88861 17.2639 9.87649 17.3358 9.88215 17.4109C9.89345 17.5523 9.9403 17.6977 10.0396 17.793C10.0558 17.8059 10.072 17.8188 10.0881 17.8317C10.0615 17.8511 10.0356 17.8729 10.0114 17.898C9.97665 17.9448 9.94191 17.9925 9.90718 18.0393C9.84903 18.1443 9.82965 18.2428 9.82641 18.3656V18.4157C9.82157 18.5053 9.82561 18.6047 9.85953 18.6847C9.88134 18.7703 9.92172 18.8454 9.97907 18.91C9.99361 18.9294 10.0098 18.9463 10.0259 18.9625C9.99361 19.0077 9.9613 19.053 9.92899 19.0982C9.87084 19.2072 9.84176 19.3252 9.84014 19.452V19.502C9.83691 19.5949 9.85307 19.6822 9.89022 19.7637C9.89264 19.7734 9.89668 19.7815 9.89911 19.7912C9.88861 19.796 9.87891 19.8001 9.86841 19.8065C9.76261 19.8687 9.6673 19.9689 9.63176 20.0997C9.59864 20.2249 9.59703 20.3614 9.65115 20.481C9.66649 20.5149 9.68184 20.548 9.69638 20.5819C9.74968 20.7007 9.84661 20.8008 9.96049 20.8436C10.0081 20.8638 10.0558 20.8711 10.1051 20.8687C10.1123 20.9058 10.1245 20.9413 10.143 20.9745C10.1632 21.0326 10.1963 21.0819 10.2408 21.1215C10.282 21.1635 10.3288 21.1925 10.3813 21.2079C10.4322 21.2329 10.4855 21.2426 10.5412 21.2362C10.5533 21.2345 10.5663 21.2329 10.5784 21.2305C10.5299 21.3193 10.5016 21.4187 10.5016 21.5269V21.577C10.4992 21.657 10.5146 21.7313 10.5477 21.7999C10.5695 21.8726 10.6058 21.9348 10.6583 21.9873C10.706 22.0422 10.7617 22.0802 10.8255 22.1028C10.8861 22.1367 10.9507 22.1521 11.0194 22.1497C11.0654 22.1424 11.1106 22.1359 11.1567 22.1287C11.1704 22.1246 11.1833 22.1182 11.1963 22.1133C11.1987 22.1634 11.2076 22.2127 11.2237 22.2603C11.2383 22.3443 11.2714 22.4202 11.3215 22.4873C11.3691 22.56 11.4281 22.6149 11.5008 22.6512C11.5678 22.7021 11.6421 22.7312 11.7253 22.7385C11.777 22.7377 11.8279 22.736 11.8796 22.7352C11.924 22.728 11.9652 22.7142 12.0056 22.6973C12.0217 22.736 12.0427 22.7716 12.0686 22.8047C12.1106 22.8661 12.1631 22.9121 12.2261 22.9428C12.285 22.9856 12.3505 23.0098 12.4223 23.0147C12.4692 23.0131 12.516 23.0107 12.5629 23.009C12.6267 22.9961 12.6865 22.9719 12.7406 22.9355C12.8585 23.1512 13.0645 23.3071 13.3576 23.3071C13.5547 23.3071 13.709 23.236 13.8221 23.1245C13.9351 23.236 14.0886 23.3071 14.2865 23.3071C14.5797 23.3071 14.7856 23.1512 14.9036 22.9355C14.9577 22.9711 15.0175 22.9961 15.0813 23.009C15.1281 23.0107 15.175 23.0131 15.2218 23.0147C15.2937 23.0098 15.3591 22.9856 15.4181 22.9428C15.4811 22.9121 15.5328 22.8661 15.5756 22.8047C15.6022 22.7716 15.6224 22.7352 15.6386 22.6973C15.679 22.7142 15.721 22.728 15.7646 22.7352C15.8163 22.736 15.8671 22.7377 15.9188 22.7385C16.0012 22.7312 16.0763 22.7021 16.1434 22.6512C16.2153 22.6149 16.275 22.56 16.3227 22.4873C16.3736 22.4202 16.4059 22.3443 16.4204 22.2603C16.4366 22.2127 16.4455 22.1634 16.4479 22.1133C16.4608 22.119 16.4737 22.1246 16.4875 22.1287C16.5335 22.1359 16.5787 22.1424 16.6248 22.1497C16.6942 22.1529 16.7588 22.1367 16.8186 22.1028C16.8824 22.081 16.9381 22.0422 16.9858 21.9873C17.0383 21.9348 17.0746 21.8726 17.0965 21.7999C17.1296 21.7313 17.1449 21.657 17.1425 21.577V21.5269C17.1425 21.4187 17.1142 21.3193 17.0658 21.2305C17.0779 21.2329 17.0908 21.2345 17.1029 21.2362C17.1595 21.2418 17.2128 21.2321 17.2628 21.2079C17.3161 21.1925 17.363 21.1643 17.4034 21.1215C17.4478 21.0811 17.4809 21.0326 17.5011 20.9745C17.5197 20.9413 17.5318 20.9058 17.5391 20.8687C17.5883 20.8719 17.636 20.8638 17.6836 20.8436C17.7983 20.8 17.8945 20.7007 17.9478 20.5819C17.9631 20.548 17.9785 20.5149 17.993 20.481C18.0544 20.3614 18.0528 20.2249 18.0196 20.0997Z" fill="#472B29"/>
<path d="M19.3169 30.4811C19.3169 28.4618 18.9195 27.2067 18.5092 26.9474C18.0989 26.6881 15.7833 25.9378 15.5814 25.8368C15.3794 25.7359 15.2785 25.2311 15.2785 24.0195H12.4515C12.4515 25.2311 12.3506 25.7359 12.1487 25.8368C11.9467 25.9378 9.63109 26.6881 9.22078 26.9474C8.81047 27.2067 8.41309 28.4618 8.41309 30.4811H19.3169Z" fill="#CE9065"/>
<path d="M18.5092 26.9474C18.2241 26.7673 17.0199 26.3506 16.2437 26.0784C16.0587 26.2391 15.2672 26.8465 13.865 26.8465C12.4629 26.8465 11.6713 26.2391 11.4864 26.0784C10.7102 26.3498 9.50589 26.7673 9.22078 26.9474C8.81047 27.2067 8.41309 28.4619 8.41309 30.4811H19.3169C19.3169 28.4619 18.9195 27.2067 18.5092 26.9474Z" fill="#EE3E54"/>
<path d="M13.8645 26.8463C12.2491 26.8463 11.4414 26.0386 11.4414 26.0386L12.7539 30.4809H14.9751L16.2876 26.0386C16.2876 26.0386 15.4799 26.8463 13.8645 26.8463Z" fill="#FDFCEF"/>
<path d="M19.5186 30.6828H8.21094V30.4808C8.21094 28.5763 8.56471 27.1217 9.11232 26.7768C9.38209 26.6072 10.2649 26.2922 11.3044 25.9287C11.6469 25.8092 12.0006 25.6848 12.0588 25.6565C12.1024 25.6274 12.2494 25.4239 12.2494 24.0193V23.8174H15.4802V24.0193C15.4802 25.4239 15.6272 25.6274 15.6716 25.6565C15.7281 25.6848 16.0827 25.8083 16.4252 25.9279C17.4647 26.2913 18.3475 26.6063 18.6172 26.776C19.1649 27.1217 19.5186 28.5763 19.5186 30.4808V30.6828ZM8.6164 30.2789H19.1132C19.0865 28.2912 18.6681 27.2864 18.4008 27.1176C18.1488 26.9585 16.9865 26.5522 16.2919 26.3091C15.8178 26.1435 15.5674 26.0555 15.4915 26.0167C15.2403 25.8915 15.0909 25.5499 15.0771 24.2204H12.6524C12.6387 25.5499 12.4893 25.8915 12.2381 26.0167C12.1622 26.0547 11.9118 26.1435 11.4377 26.3091C10.7431 26.5522 9.57998 26.9585 9.32878 27.1176C9.06144 27.2864 8.64305 28.2912 8.6164 30.2789Z" fill="#472B29"/>
<path d="M18.0436 20.7579C18.0904 20.5972 18.13 20.4397 18.1857 20.283C18.2584 20.0779 18.2067 19.947 17.9798 19.8202C17.9693 19.8146 17.9604 19.8073 17.9523 19.8008C17.916 19.7952 17.8812 19.7903 17.8513 19.7871C17.647 19.7629 17.2843 19.7524 17.1785 19.5399C17.059 19.2984 17.118 19.0424 17.1495 18.788C17.1834 18.5077 17.0784 18.2379 17.0776 17.9585C17.059 17.931 17.0453 17.8987 17.0412 17.8599C16.9992 17.4472 16.8789 17.0531 16.7182 16.6718C16.1536 15.9231 15.0987 15.4175 13.8912 15.4175C12.0909 15.4175 10.6265 16.5402 10.6265 17.9205C10.6265 17.9859 10.6306 18.0506 10.637 18.1144C10.6193 18.3639 10.5958 18.5861 10.6072 18.8591C10.6177 19.1006 10.5821 19.2799 10.6055 19.5989C10.6185 19.779 10.5369 19.6627 10.2493 19.6773C10.2122 19.6773 10.1775 19.6773 10.1419 19.6797C9.82692 19.7007 9.5725 19.9034 9.51758 20.1546C9.55635 20.178 9.58704 20.216 9.60077 20.2725C9.71546 20.7386 9.69931 21.2773 9.93192 21.711C10.062 21.9525 10.2639 21.9864 10.4723 22.1423C10.5878 22.2288 10.6096 22.3265 10.6411 22.4557C10.7574 22.9347 11.0821 23.3409 11.4367 23.6883C11.6168 23.8643 11.8098 24.0226 12.0045 24.1826C12.166 24.315 12.3356 24.4685 12.5359 24.5476C12.603 24.5743 12.6442 24.6211 12.6643 24.6744C12.7968 24.7455 12.985 24.8457 12.985 24.8441C13.6263 25.1017 14.241 25.1235 14.8903 24.8319C14.8903 24.8344 14.8903 24.8368 14.8903 24.8392C14.8936 24.8368 15.2062 24.6858 15.3338 24.6155C15.3435 24.6018 15.3556 24.588 15.3709 24.5751C15.5672 24.4087 15.7853 24.2698 15.988 24.1107C16.1544 23.9798 16.2909 23.8353 16.4193 23.6778C16.3894 23.6099 16.4557 23.6681 16.517 23.597C16.8046 23.2626 17.0752 22.736 17.122 22.3071C17.1244 22.2853 17.1406 22.2691 17.1519 22.253C17.1147 22.1343 17.2068 22.0688 17.3772 22.0648C17.5307 22.0608 17.622 21.8871 17.7399 21.8031C17.8271 21.4655 17.9467 21.0907 18.0436 20.7579Z" fill="#DB9E71"/>
<path opacity="0.8" d="M17.2643 20.4769C17.2683 20.422 17.2692 20.3678 17.2627 20.3137L17.6698 20.3929L17.522 21.1319L17.358 21.102L17.4743 20.5181L17.2643 20.4769Z" fill="#8E7469"/>
<path d="M17.8138 19.6854C17.6741 19.6498 17.5254 19.6466 17.3679 19.6272C17.3679 19.6103 17.3276 19.645 17.3276 19.628C17.2282 19.6183 17.1757 19.5012 17.1741 19.3784C17.1709 19.1313 17.1402 18.8599 17.1628 18.6006C17.1692 18.3664 17.1272 18.217 17.082 18.0514C17.0893 17.9836 17.0933 17.9149 17.0933 17.8454C17.0933 16.4271 15.629 15.2729 13.8286 15.2729C12.0283 15.2729 10.5639 16.4271 10.5639 17.8454C10.5639 17.9125 10.568 17.9787 10.5744 18.0449C10.5567 18.301 10.5332 18.5296 10.5446 18.8106C10.5551 19.0586 10.5195 19.2436 10.5429 19.5715C10.5559 19.7564 10.4743 19.6369 10.1867 19.6514C10.1496 19.6514 10.1149 19.6523 10.0793 19.6539C9.68921 19.6805 9.39036 19.9947 9.45255 20.3339C9.52444 20.7273 9.61005 21.1182 9.70778 21.5067C9.8039 21.8912 9.99371 22.2054 10.4541 22.2506C10.5131 22.7506 10.6197 23.0042 10.9339 23.3983C11.3619 23.9338 11.8692 24.3894 12.4822 24.7221C12.546 24.7569 12.9224 24.9653 12.9224 24.962C13.5637 25.2269 14.1784 25.2496 14.8277 24.9491C14.8277 24.9515 14.8277 24.9539 14.8277 24.9564C14.8318 24.9539 15.2364 24.7528 15.3124 24.7011C15.6201 24.4944 15.9335 24.2876 16.2041 24.0404C16.7404 23.5502 17.2468 23.0316 17.3001 22.2482C17.7548 22.207 17.9438 21.8968 18.0407 21.5221C18.1361 21.1546 18.2047 20.7806 18.2814 20.4091C18.3566 20.0521 18.1837 19.7791 17.8138 19.6854ZM10.4541 21.98C10.2263 21.9857 10.0753 21.896 9.99532 21.6408C9.88548 21.2911 9.72232 20.5617 9.72071 20.5561C9.54867 20.0246 9.87417 19.7888 10.4541 19.9002V20.2088C10.4517 20.2088 10.4484 20.4648 10.4541 20.4664V21.98ZM17.0489 22.3451C17.0473 22.4832 17.0247 22.6383 16.9552 22.7554C16.3187 23.8329 15.423 24.6163 14.1396 24.9273C13.6946 25.0355 13.277 24.8804 12.8901 24.6947C12.0792 24.3062 11.4298 23.7351 10.9339 23.0082C10.7715 22.7699 10.6843 22.5147 10.6972 22.2215C10.7134 21.8346 10.7012 21.4469 10.7012 21.0601C10.7012 21.0124 10.7053 20.9648 10.7004 20.9171C10.6051 19.8542 10.8264 17.8842 10.8264 17.8454C10.8264 16.5653 12.1729 15.5233 13.8286 15.5233C15.4836 15.5233 16.8849 16.5653 16.8849 17.8454C16.8849 17.8713 16.8954 17.9028 16.8946 17.9286C17.0085 18.0369 16.9245 19.0723 17.0424 19.5941C17.0554 19.6531 17.0537 19.7161 17.0537 19.7766C17.0537 20.6328 17.0578 21.4889 17.0489 22.3451ZM18.069 20.3202C17.985 20.7661 17.8816 21.2095 17.7564 21.6464C17.6862 21.8936 17.5529 21.9679 17.3001 21.9913V20.4696C17.3001 20.4696 17.3009 20.4696 17.3017 20.4688C17.3017 20.464 17.3009 20.4599 17.3009 20.4543V20.1328C17.2993 20.132 17.2977 20.1312 17.2952 20.1304V19.8736C17.4309 19.8736 17.5577 19.8655 17.6821 19.8752C17.9349 19.8962 18.1142 20.0803 18.069 20.3202Z" fill="#472B29"/>
<path opacity="0.8" d="M10.5144 20.6095C10.5103 20.5521 10.5095 20.4948 10.516 20.4382L10.0879 20.5206L10.243 21.2976L10.4158 21.2661L10.293 20.6523L10.5144 20.6095Z" fill="#8E7469"/>
<path opacity="0.49" d="M13.8569 21.9736C14.0734 21.9736 14.2826 21.8791 14.4183 21.7208C14.432 21.7046 14.4304 21.6812 14.4142 21.6675C14.3981 21.6538 14.3747 21.6554 14.3609 21.6715C14.2511 21.7975 14.0677 21.8694 13.8577 21.8694C13.6477 21.8694 13.4644 21.7975 13.3546 21.6715C13.3473 21.6626 13.3368 21.6586 13.3255 21.6586C13.3166 21.6586 13.3077 21.6618 13.3004 21.6675C13.2843 21.6812 13.2827 21.7055 13.2964 21.7208C13.4313 21.8791 13.6413 21.9736 13.8569 21.9736Z" fill="#472B29"/>
<path d="M13.1679 19.0507L13.3052 18.7874C12.7245 18.6517 12.0565 18.6727 11.5049 18.8439L11.6777 19.1008C12.1317 18.9514 12.689 18.932 13.1679 19.0507ZM16.074 19.0507L16.2113 18.7874C15.6306 18.6517 14.9626 18.6727 14.411 18.8439L14.5838 19.1008C15.0369 18.9514 15.595 18.932 16.074 19.0507ZM12.3328 19.423C12.193 19.423 12.0711 19.5151 12 19.6549C12.0178 19.6492 12.0355 19.6452 12.0549 19.6452C12.1696 19.6452 12.2617 19.7485 12.2617 19.8762C12.2617 20.0038 12.1688 20.1072 12.0549 20.1072C12.0178 20.1072 11.983 20.095 11.9523 20.0757C12.0016 20.2849 12.1527 20.4375 12.332 20.4375C12.5508 20.4375 12.7285 20.2105 12.7285 19.9303C12.7285 19.65 12.5517 19.423 12.3328 19.423ZM15.3665 19.423C15.2477 19.423 15.1411 19.4901 15.0684 19.5967C15.091 19.587 15.1153 19.5814 15.1411 19.5814C15.2558 19.5814 15.3479 19.6847 15.3479 19.8124C15.3479 19.94 15.255 20.0434 15.1411 20.0434C15.07 20.0434 15.0078 20.0038 14.9707 19.9424C14.9755 20.217 15.1508 20.4375 15.3665 20.4375C15.5853 20.4375 15.763 20.2105 15.763 19.9303C15.763 19.65 15.5862 19.423 15.3665 19.423Z" fill="#472B29"/>
<path opacity="0.49" d="M15.5345 22.5616C15.5506 22.5487 15.553 22.5245 15.5401 22.5083C15.5272 22.4922 15.503 22.4897 15.4868 22.5027C15.129 22.7878 14.5354 22.9509 13.8577 22.9509C13.18 22.9509 12.5864 22.7878 12.2286 22.5027C12.2213 22.497 12.2132 22.4946 12.2052 22.4946C12.1939 22.4946 12.1834 22.4994 12.1753 22.5091C12.1624 22.5253 12.1648 22.5495 12.1809 22.5624C12.5848 22.892 13.2115 23.0891 13.8577 23.0891C14.5039 23.0891 15.1306 22.892 15.5345 22.5616Z" fill="#472B29"/>
<path d="M10.7224 18.6087C10.871 17.9206 11.1141 17.255 11.4461 16.6412C11.3419 16.4837 11.1481 16.4425 10.9679 16.4877C10.4349 17.339 10.3137 18.4149 10.3008 19.1652C10.3266 19.6038 10.3953 20.0343 10.5245 20.4228C10.6287 19.8251 10.5924 19.2104 10.7224 18.6087ZM16.9545 18.6087C16.8059 17.9206 16.5628 17.255 16.2309 16.6412C16.335 16.4837 16.5289 16.4425 16.709 16.4877C17.2421 17.339 17.3632 18.4149 17.3762 19.1652C17.3503 19.6038 17.2817 20.0343 17.1524 20.4228C17.0474 19.8251 17.0846 19.2104 16.9545 18.6087Z" fill="#472B29"/>
<path d="M17.4607 18.8019C17.6101 17.2503 17.1619 16.3651 16.8323 15.9281C16.0319 15.265 14.9674 14.8604 13.7986 14.8604C12.8237 14.8604 11.9224 15.1422 11.1857 15.6196C10.5662 16.2512 9.83852 17.4038 10.2052 18.8011C10.2311 19.2397 10.3902 20.4593 10.5194 20.8478C10.6236 20.2501 10.5872 18.8471 10.7173 18.2454C10.8126 17.8036 10.9475 17.3715 11.1187 16.9563C11.9894 15.9968 15.6071 16.0404 16.5472 16.9563C16.7192 17.3715 16.8533 17.8036 16.9486 18.2454C17.0787 18.8479 17.0423 20.2509 17.1465 20.8478C17.2757 20.4601 17.4349 19.2405 17.4607 18.8019Z" fill="#472B29"/>
<path d="M13.4593 19.6166C12.8374 18.859 10.4927 19.3961 10.4902 19.3961C10.533 19.5674 10.571 19.7362 10.6041 19.9034C10.7786 19.9211 10.7883 20.3121 10.806 20.4558C10.89 21.1472 11.3529 21.6561 12.3261 21.6326C13.3018 21.5817 13.5296 20.8758 13.57 20.4308C13.6144 19.9454 13.4585 19.6182 13.4593 19.6166ZM13.3479 20.4655C13.2978 21.085 12.9174 21.4477 12.3027 21.4767C12.2405 21.48 12.1799 21.4808 12.1218 21.4784C11.1525 21.4767 10.987 20.6287 10.9676 20.0924C10.9555 19.7854 11.1743 19.5229 11.4837 19.4922C11.6614 19.4745 11.8617 19.4745 12.0927 19.4745C12.8164 19.4745 13.1322 19.6473 13.2154 19.7854C13.2663 19.8686 13.3761 20.1295 13.3479 20.4655ZM14.1459 20.4308C14.1862 20.875 14.414 21.5817 15.3897 21.6326C16.363 21.6569 16.8258 21.1472 16.9098 20.4558C16.9267 20.3129 16.9372 19.9219 17.1117 19.9034C17.1456 19.7362 17.1828 19.5674 17.2256 19.3961C17.2232 19.3969 14.8784 18.859 14.2565 19.6166C14.2573 19.6182 14.1014 19.9454 14.1459 20.4308ZM14.4988 19.7862C14.5828 19.6473 14.8978 19.4753 15.6215 19.4753C15.8525 19.4753 16.0528 19.4753 16.2305 19.4931C16.5399 19.5237 16.7587 19.7862 16.7466 20.0932C16.7272 20.6295 16.5617 21.4776 15.5924 21.4792C15.5351 21.4816 15.4737 21.4808 15.4115 21.4776C14.7969 21.4477 14.4164 21.085 14.3663 20.4663C14.3397 20.1295 14.4495 19.8686 14.4988 19.7862Z" fill="#F1BC19"/>
<path d="M14.278 20.2118C14.278 20.2118 14.1189 20.0866 13.841 20.0866C13.5801 20.0866 13.4372 20.2118 13.4372 20.2118C13.3944 20.0947 13.3524 19.9767 13.3096 19.8596C13.6755 19.8596 14.0405 19.8596 14.4064 19.8596C14.3628 19.9775 14.3208 20.0947 14.278 20.2118Z" fill="#F1BC19"/>
<path d="M20.7303 30.8845H6.99955C6.77663 30.8845 6.5957 30.7036 6.5957 30.4807V12.7115C6.5957 12.4885 6.77663 12.3076 6.99955 12.3076H20.7303C20.9532 12.3076 21.1342 12.4885 21.1342 12.7115V30.4807C21.1342 30.7036 20.9532 30.8845 20.7303 30.8845ZM7.4034 30.0768H20.3265V13.1153H7.4034V30.0768Z" fill="#472B29"/>
<path d="M34.6633 24.423H24.5672C24.4557 24.423 24.3652 24.3325 24.3652 24.2211C24.3652 24.1096 24.4557 24.0192 24.5672 24.0192H34.6633C34.7748 24.0192 34.8652 24.1096 34.8652 24.2211C34.8652 24.3325 34.7748 24.423 34.6633 24.423ZM38.7018 21.1922H24.5672C24.4557 21.1922 24.3652 21.1018 24.3652 20.9903C24.3652 20.8788 24.4557 20.7884 24.5672 20.7884H38.7018C38.8132 20.7884 38.9037 20.8788 38.9037 20.9903C38.9037 21.1018 38.8132 21.1922 38.7018 21.1922ZM38.7018 17.9615H24.5672C24.4557 17.9615 24.3652 17.871 24.3652 17.7595C24.3652 17.6481 24.4557 17.5576 24.5672 17.5576H38.7018C38.8132 17.5576 38.9037 17.6481 38.9037 17.7595C38.9037 17.871 38.8132 17.9615 38.7018 17.9615Z" fill="#472B29"/>
</svg>
