<svg width="45" height="44" viewBox="0 0 45 44" fill="none" xmlns="http://www.w3.org/2000/svg">
<path d="M2.25391 19.5408C2.25031 24.1126 5.07812 28.437 9.93977 31.2943C9.93977 33.7676 9.21627 36.5055 8.3137 38.2459C7.99295 38.8644 8.49781 39.575 9.1911 39.4994C13.6781 39.0075 17.9291 36.7968 20.1888 34.5853H22.7505C34.0703 34.5853 43.2471 27.8495 43.2471 19.5408C43.2471 11.2321 34.0703 4.49561 22.7505 4.49561C11.4306 4.49561 2.25391 11.2314 2.25391 19.5408Z" fill="#FEFDEF"/>
<path d="M9.09209 40.0079C8.63685 40.0079 8.20894 39.7864 7.95004 39.4088C7.66237 38.9888 7.63144 38.4674 7.86661 38.0143C8.76559 36.2818 9.38192 33.7316 9.43298 31.5784C4.54185 28.6132 1.74569 24.2399 1.75 19.5394C1.75 10.9668 11.1712 3.99219 22.75 3.99219C34.3288 3.99219 43.75 10.9668 43.75 19.5401C43.75 28.1134 34.3288 35.0887 22.75 35.0887H20.3904C18.1602 37.1902 13.907 39.4879 9.24528 40C9.1935 40.0057 9.14244 40.0079 9.09209 40.0079ZM22.75 4.99904C11.7257 4.99904 2.75686 11.522 2.75686 19.5401C2.75686 19.5401 2.75686 19.5401 2.75686 19.5408C2.75254 23.9544 5.46384 28.0803 10.1946 30.86C10.3485 30.9506 10.4434 31.1153 10.4434 31.2943C10.4434 33.6878 9.78251 36.5077 8.75983 38.4775C8.67138 38.6479 8.74473 38.7875 8.77997 38.8392C8.85908 38.955 8.99429 39.0205 9.13524 38.9989C13.6653 38.5027 17.7733 36.2437 19.8359 34.2257C19.9301 34.1337 20.0567 34.0819 20.1876 34.0819H22.75C33.7743 34.0819 42.7432 27.5589 42.7432 19.5401C42.7432 11.5227 33.7743 4.99904 22.75 4.99904Z" fill="#472B29"/>
<path d="M10.2385 28.9201C10.2025 28.9201 10.1673 28.9094 10.1356 28.8878C6.61741 26.4512 4.68066 23.1833 4.68066 19.6873C4.68066 14.3467 9.40494 9.50809 16.4378 7.64757C16.5291 7.61953 16.632 7.67922 16.6571 7.77559C16.683 7.87124 16.6255 7.96977 16.5291 7.99494C9.65737 9.81374 5.04025 14.5128 5.04025 19.6881C5.04025 23.0624 6.92234 26.2254 10.3406 28.5936C10.4219 28.6497 10.4427 28.7619 10.3859 28.8439C10.3514 28.8935 10.2953 28.9201 10.2385 28.9201ZM11.7523 36.5679C11.7042 36.5679 11.656 36.5485 11.6207 36.5111C11.5725 36.4593 11.5589 36.3831 11.5862 36.3176C12.4615 34.255 12.5017 32.6879 12.5636 30.3161L12.7434 30.3046L12.9232 30.3096C12.8635 32.5915 12.8232 34.1371 12.0709 36.0788C14.4363 35.177 16.2177 33.817 17.8078 31.7113C17.8495 31.6559 17.9186 31.6286 17.9855 31.643C18.7384 31.7889 18.9621 31.8177 19.7697 31.8975C19.869 31.9076 19.9409 31.9953 19.9316 32.0939C19.9215 32.1924 19.8316 32.2722 19.7352 32.2557C18.9542 32.1787 18.709 32.1485 18.0272 32.0176C16.3256 34.2428 14.404 35.6452 11.8113 36.5571C11.7926 36.5643 11.7718 36.5679 11.7523 36.5679Z" fill="#472B29"/>
<path d="M22.7374 32.5306C22.6382 32.5306 22.5576 32.45 22.5576 32.3508C22.5576 32.2515 22.6382 32.171 22.7374 32.171C27.8493 32.171 32.711 30.6097 36.0767 27.8883C36.1522 27.8272 36.2666 27.8372 36.3299 27.9149C36.3924 27.9918 36.3802 28.1055 36.3033 28.168C32.8749 30.9405 27.9306 32.5306 22.7374 32.5306Z" fill="#472B29"/>
<path d="M38.104 26.3419C38.063 26.3419 38.022 26.3275 37.9882 26.2995C37.9127 26.2355 37.9026 26.1218 37.9666 26.0456C39.5812 24.1268 40.4348 21.9276 40.4348 19.6866C40.4348 16.8221 39.095 14.1274 36.5592 11.8936C36.4844 11.8282 36.4772 11.7145 36.5433 11.6397C36.6081 11.5649 36.7231 11.5577 36.7972 11.6239C39.3755 13.8944 40.7951 16.7581 40.7951 19.6866C40.7951 22.0132 39.912 24.2922 38.2428 26.2772C38.2054 26.3203 38.155 26.3419 38.104 26.3419Z" fill="#472B29"/>
<path d="M34.1088 10.0959C34.0779 10.0959 34.0462 10.088 34.0182 10.0714C33.34 9.67444 32.6136 9.31125 31.8599 8.9905C31.7686 8.95094 31.7254 8.84594 31.7643 8.75461C31.8038 8.66183 31.9117 8.62084 32.0002 8.65896C32.7683 8.98618 33.5083 9.35728 34.1994 9.76074C34.285 9.81036 34.3138 9.92112 34.2641 10.0067C34.2303 10.0642 34.1707 10.0959 34.1088 10.0959Z" fill="#472B29"/>
<path d="M30.6371 8.50483C30.6176 8.50483 30.5975 8.50124 30.5781 8.49477C28.1278 7.63894 25.4899 7.20456 22.7383 7.20456C21.9674 7.20456 21.1899 7.24052 20.4262 7.31028C20.3427 7.31603 20.2392 7.24627 20.2313 7.14703C20.2219 7.0485 20.2953 6.96076 20.3945 6.95213C21.1684 6.88093 21.9573 6.84497 22.739 6.84497C25.5316 6.84497 28.2084 7.28583 30.6967 8.15459C30.791 8.18768 30.8399 8.2898 30.8075 8.38329C30.7809 8.45809 30.7111 8.50483 30.6371 8.50483Z" fill="#472B29"/>
<path d="M16.9969 18.3188C16.6155 18.3188 16.2496 18.4704 15.9799 18.7401C15.7101 19.0099 15.5586 19.3757 15.5586 19.7572C15.5586 20.1387 15.7101 20.5045 15.9799 20.7743C16.2496 21.044 16.6155 21.1956 16.9969 21.1956C17.3784 21.1956 17.7443 21.044 18.014 20.7743C18.2838 20.5045 18.4353 20.1387 18.4353 19.7572C18.4353 19.3757 18.2838 19.0099 18.014 18.7401C17.7443 18.4704 17.3784 18.3188 16.9969 18.3188Z" fill="#BB7A54"/>
<path d="M16.9971 21.3755C16.1053 21.3755 15.3789 20.6491 15.3789 19.7573C15.3789 18.8655 16.1053 18.1392 16.9971 18.1392C17.8888 18.1392 18.6152 18.8655 18.6152 19.7573C18.6152 20.6491 17.8888 21.3755 16.9971 21.3755ZM16.9971 18.4987C16.303 18.4987 15.7385 19.0633 15.7385 19.7573C15.7385 20.4513 16.303 21.0159 16.9971 21.0159C17.6911 21.0159 18.2556 20.4513 18.2556 19.7573C18.2556 19.0633 17.6911 18.4987 16.9971 18.4987Z" fill="#472B29"/>
<path d="M22.7509 18.3188C22.3694 18.3188 22.0035 18.4704 21.7338 18.7401C21.464 19.0099 21.3125 19.3757 21.3125 19.7572C21.3125 20.1387 21.464 20.5045 21.7338 20.7743C22.0035 21.044 22.3694 21.1956 22.7509 21.1956C23.1323 21.1956 23.4982 21.044 23.7679 20.7743C24.0377 20.5045 24.1892 20.1387 24.1892 19.7572C24.1892 19.3757 24.0377 19.0099 23.7679 18.7401C23.4982 18.4704 23.1323 18.3188 22.7509 18.3188Z" fill="#BB7A54"/>
<path d="M22.75 21.3755C21.8582 21.3755 21.1318 20.6491 21.1318 19.7573C21.1318 18.8655 21.8582 18.1392 22.75 18.1392C22.9521 18.1392 23.1513 18.1766 23.339 18.2492C23.4318 18.2859 23.4771 18.3894 23.4418 18.4822C23.4052 18.5743 23.3023 18.6167 23.2088 18.585C23.0621 18.5275 22.9082 18.4987 22.75 18.4987C22.056 18.4987 21.4914 19.0633 21.4914 19.7573C21.4914 20.4513 22.056 21.0159 22.75 21.0159C23.444 21.0159 24.0085 20.4513 24.0085 19.7573C24.0085 19.5811 23.9726 19.4114 23.9035 19.2532C23.8633 19.1618 23.9043 19.0561 23.9949 19.0158C24.0855 18.9748 24.1919 19.0158 24.2322 19.1072C24.3228 19.3114 24.3681 19.5308 24.3681 19.7573C24.3681 20.6491 23.6418 21.3755 22.75 21.3755Z" fill="#472B29"/>
<path d="M28.5038 18.3188C28.1223 18.3188 27.7565 18.4704 27.4867 18.7401C27.217 19.0099 27.0654 19.3757 27.0654 19.7572C27.0654 20.1387 27.217 20.5045 27.4867 20.7743C27.7565 21.044 28.1223 21.1956 28.5038 21.1956C28.8853 21.1956 29.2511 21.044 29.5209 20.7743C29.7906 20.5045 29.9421 20.1387 29.9421 19.7572C29.9421 19.3757 29.7906 19.0099 29.5209 18.7401C29.2511 18.4704 28.8853 18.3188 28.5038 18.3188Z" fill="#BB7A54"/>
<path d="M27.9794 21.2768C27.9579 21.2768 27.9348 21.2724 27.914 21.2638C27.7047 21.1825 27.5177 21.0603 27.3588 20.9006C26.7281 20.2699 26.7281 19.2429 27.3588 18.6122C27.9895 17.9815 29.0165 17.9815 29.6472 18.6122C30.2779 19.2429 30.2779 20.2699 29.6472 20.9006C29.5034 21.0445 29.3365 21.1581 29.1524 21.2394C29.0618 21.2796 28.9561 21.2372 28.9158 21.1459C28.8762 21.0552 28.918 20.9495 29.0093 20.9093C29.1517 20.8474 29.2811 20.7589 29.3933 20.6468C29.8845 20.1556 29.8845 19.358 29.3933 18.8668C28.9029 18.3763 28.1039 18.3763 27.6134 18.8668C27.1222 19.358 27.1222 20.1556 27.6134 20.6468C27.7378 20.7712 27.8831 20.8661 28.0456 20.9301C28.1384 20.9661 28.1837 21.0696 28.1477 21.1624C28.1197 21.2336 28.0513 21.2768 27.9794 21.2768Z" fill="#472B29"/>
</svg>
